<svg xmlns="http://www.w3.org/2000/svg" xmlns:xlink="http://www.w3.org/1999/xlink" width="65" height="19" viewBox="0 0 65 19">
    <defs>
        <path id="a" d="M0 19h65V0H0z"/>
    </defs>
    <g fill="none" fill-rule="evenodd">
        <path fill="#0A1C2A" d="M11.097 15.143c2.134.332 3.74-.968 4.544-3.708l.005-.016c1.732-5.13 2.02-8.739.786-9.899-1.229-1.174-4.848-.88-9.93.804C3.792 3.1 2.52 4.7 2.866 6.857c3.132-1.012 7.07-1.855 8.604-.394 1.563 1.472.684 5.479-.373 8.68zm.619.857c-.4 0-.815-.052-1.242-.159l-.417-.104.184-.596c1.42-4.211 1.661-7.156.668-8.09-.994-.947-3.946-.7-8.103.678a3.018 3.018 0 0 0-.117.034l-.419.14-.106-.426c-.693-2.778.839-4.993 4.097-5.926C10.106.276 15.104-.87 16.993.934c1.913 1.8.745 6.83-.573 10.736-.819 2.785-2.532 4.33-4.704 4.33z"/>
        <path fill="#0A1C2A" d="M3.96 7.918c.424 1.32 1.387 2.744 2.87 4.238 1.457 1.472 2.902 2.462 4.203 2.884 1.33-4.001 1.547-6.804.591-7.702-.95-.905-3.736-.692-7.663.58zM11.565 16l-.365-.091c-1.557-.387-3.216-1.463-4.934-3.199-1.718-1.73-2.787-3.398-3.177-4.956L3 7.401l.347-.116a1.97 1.97 0 0 1 .137-.041c3.1-1.027 7.144-1.949 8.688-.478 1.562 1.47.623 5.537-.441 8.693l-.167.541z"/>
        <path fill="#0A1C2A" d="M3.259 8.02c-1.3.476-2.114 1.24-2.366 2.225-.374 1.465.513 3.372 2.499 5.367 1.949 1.965 3.822 2.858 5.276 2.514 1-.238 1.789-1.053 2.295-2.368-1.459-.471-3.002-1.52-4.594-3.126C4.775 11.03 3.73 9.48 3.26 8.02M8.022 19c-1.243 0-2.995-.597-5.206-2.826C.007 13.352-.206 11.284.11 10.048.459 8.682 1.6 7.67 3.413 7.123L3.821 7l.102.41c.36 1.44 1.378 3.007 3.022 4.66 1.618 1.632 3.222 2.68 4.638 3.032l.417.103-.13.406c-.586 1.827-1.628 2.965-3.014 3.294a3.61 3.61 0 0 1-.834.095M28.458 12.164c.327-.556.491-1.315.491-2.276 0-.87-.17-1.555-.51-2.056-.342-.5-.872-.75-1.59-.75-.305 0-.62.045-.948.136-.328.091-.629.222-.906.394v4.613c0 .293.161.495.485.607.322.11.705.167 1.147.167.893 0 1.504-.279 1.831-.835m.747-5.075c.53.673.795 1.606.795 2.8-.009 1.537-.332 2.607-.968 3.208a3.186 3.186 0 0 1-2.267.903C24.92 14 24 13.494 24 12.483V3h.995v3.52c.286-.122.607-.225.961-.311.355-.086.652-.129.892-.129 1.041 0 1.827.336 2.357 1.01M35.376 12.16c.382-.506.573-1.189.573-2.048 0-.951-.156-1.707-.47-2.268-.313-.562-.88-.843-1.7-.843-.498 0-.92.063-1.265.19-.346.127-.519.296-.519.508v4.689c.554.354 1.125.53 1.715.53.728 0 1.283-.252 1.666-.758m.712-5.181c.608.652.912 1.697.912 3.133 0 1.183-.285 2.114-.857 2.792-.571.677-1.382 1.016-2.433 1.016-.24 0-.517-.04-.83-.121a4.976 4.976 0 0 1-.885-.319V17H31V7.502c0-.556.279-.943.836-1.16.558-.218 1.21-.332 1.957-.342.921 0 1.686.326 2.295.979M43.493 12.003c.3-.094.45-.284.45-.57V9.936a4.232 4.232 0 0 0-.914-.274c-.348-.068-.71-.1-1.087-.1-.609 0-1.078.106-1.406.32-.328.215-.493.527-.493.937 0 .464.194.801.58 1.01.387.21.855.315 1.406.315.676 0 1.164-.047 1.464-.14m.804-5.454c.468.366.703.896.703 1.592v3.24c0 .642-.285 1.072-.855 1.29-.57.22-1.358.329-2.363.329-.763 0-1.417-.157-1.963-.469-.546-.312-.819-.834-.819-1.566 0-.794.236-1.372.71-1.733.473-.361 1.125-.542 1.956-.542.938 0 1.696.156 2.276.469v-.79c0-1-.633-1.5-1.898-1.5-.416 0-.836.055-1.261.162a3.02 3.02 0 0 0-1.073.482v-.964c.29-.17.683-.303 1.182-.401A7.662 7.662 0 0 1 42.377 6c.811 0 1.451.183 1.92.55M52 6l-3.187 7.919c-.308.77-.668 1.31-1.08 1.619-.412.308-.832.462-1.259.462a1.95 1.95 0 0 1-.7-.13v-.954c.2.087.412.13.641.13.427 0 .76-.149.998-.447.238-.3.462-.752.67-1.36L45 6h1.221l2.354 5.881L50.928 6H52z"/>
        <mask id="b" fill="#fff">
            <use xlink:href="#a"/>
        </mask>
        <path fill="#0A1C2A" d="M53 14h2v-2h-2zM56.05 14h.9V6.519h-.9V14zM56 5.185h1V4h-1v1.185zM63.902 9.48c0-.839-.188-1.481-.564-1.927-.377-.446-.991-.67-1.846-.67-1.596 0-2.394.866-2.394 2.597 0 1.758.798 2.637 2.394 2.637 1.607 0 2.41-.88 2.41-2.637m-5.025 2.61c-.585-.607-.877-1.477-.877-2.61 0-1.151.297-2.019.892-2.603C59.487 6.293 60.35 6 61.477 6c1.19 0 2.075.31 2.654.93.58.62.869 1.47.869 2.55 0 1.107-.305 1.97-.915 2.59-.61.62-1.47.93-2.577.93-1.17 0-2.046-.303-2.631-.91" mask="url(#b)"/>
    </g>
</svg>
