<svg xmlns="http://www.w3.org/2000/svg" xmlns:xlink="http://www.w3.org/1999/xlink" width="125" height="36" viewBox="0 0 125 36">
    <defs>
        <path id="a" d="M0 36h126V0H0z"/>
    </defs>
    <g fill="none" fill-rule="evenodd">
        <path fill="#7493DA" d="M23.058 28.392c4 .623 7.013-1.813 8.519-6.952l.009-.029c3.249-9.62 3.786-16.385 1.474-18.56C30.756.647 23.97 1.2 14.442 4.357 9.36 5.813 6.975 8.812 7.624 12.856c5.873-1.897 13.257-3.476 16.133-.737 2.93 2.758 1.282 10.272-.7 16.273M24.218 30c-.749 0-1.527-.098-2.33-.298l-.78-.194.344-1.12c2.662-7.895 3.116-13.416 1.253-15.168-1.863-1.776-7.399-1.312-15.193 1.271-.1.028-.16.046-.22.065l-.784.263-.2-.799C5.007 8.811 7.88 4.658 13.99 2.908 21.2.517 30.57-1.632 34.113 1.75c3.585 3.375 1.396 12.806-1.076 20.13C31.502 27.102 28.29 30 24.217 30"/>
        <path fill="#7493DA" d="M7.825 14.645c.804 2.508 2.635 5.213 5.453 8.052 2.768 2.796 5.512 4.676 7.985 5.48 2.528-7.603 2.939-12.928 1.123-14.635-1.806-1.72-7.099-1.314-14.56 1.103zM22.272 30l-.694-.173c-2.958-.735-6.111-2.78-9.375-6.078-3.265-3.288-5.294-6.457-6.035-9.416L6 13.662l.66-.22c.085-.03.171-.055.26-.079 5.889-1.95 13.572-3.702 16.507-.908 2.969 2.792 1.184 10.52-.838 16.517L22.272 30z"/>
        <path fill="#7493DA" d="M5.975 14.954c-2.383.913-3.876 2.378-4.338 4.265-.686 2.81.94 6.463 4.58 10.287 3.575 3.767 7.01 5.479 9.674 4.818 1.835-.455 3.28-2.018 4.208-4.538-2.675-.903-5.503-2.914-8.422-5.99-2.923-3.073-4.838-6.043-5.702-8.842M14.706 36c-2.277 0-5.49-1.144-9.543-5.416-5.15-5.41-5.54-9.372-4.961-11.743.64-2.618 2.733-4.556 6.056-5.605L7.004 13l.189.785c.66 2.76 2.525 5.765 5.54 8.933 2.966 3.127 5.906 5.137 8.503 5.81l.764.198-.238.78c-1.074 3.5-2.985 5.681-5.526 6.312-.451.111-.961.182-1.53.182M55.917 22.662c.654-1.011.982-2.39.982-4.138 0-1.582-.342-2.828-1.023-3.738-.682-.91-1.742-1.366-3.18-1.366-.608 0-1.24.084-1.894.248a7.329 7.329 0 0 0-1.811.718v8.387c0 .533.322.9.968 1.103.645.202 1.41.303 2.294.303 1.788 0 3.01-.505 3.664-1.517m1.493-9.227c1.06 1.223 1.59 2.92 1.59 5.09-.018 2.795-.664 4.74-1.935 5.834C55.793 25.453 54.28 26 52.53 26c-3.687 0-5.53-.92-5.53-2.759V6h1.99v6.4a13.267 13.267 0 0 1 1.923-.566c.71-.156 1.304-.234 1.783-.234 2.083 0 3.654.612 4.714 1.835M69.752 22.2c.765-.92 1.147-2.161 1.147-3.724 0-1.73-.313-3.103-.94-4.124-.626-1.021-1.76-1.531-3.401-1.531-.996 0-1.839.114-2.53.345-.692.23-1.037.538-1.037.924v8.524c1.107.644 2.248.965 3.429.965 1.455 0 2.566-.459 3.332-1.379m1.424-9.42C72.392 13.966 73 15.865 73 18.476c0 2.151-.57 3.843-1.714 5.076-1.143 1.232-2.765 1.848-4.866 1.848-.48 0-1.033-.074-1.66-.22a10.618 10.618 0 0 1-1.769-.58V31H61V13.73c0-1.01.557-1.714 1.673-2.11 1.115-.395 2.42-.601 3.913-.62 1.843 0 3.373.593 4.59 1.78M83.236 23.005c.55-.187.825-.566.825-1.137v-2.999a7.286 7.286 0 0 0-1.675-.548 9.638 9.638 0 0 0-1.992-.2c-1.116 0-1.976.213-2.578.641-.602.43-.904 1.053-.904 1.875 0 .928.355 1.601 1.064 2.02.708.42 1.567.63 2.577.63 1.24 0 2.134-.094 2.683-.282m1.475-10.907C85.57 12.83 86 13.891 86 15.283v6.477c0 1.285-.523 2.146-1.568 2.584-1.045.437-2.488.656-4.33.656-1.4 0-2.6-.313-3.6-.938C75.5 23.439 75 22.395 75 20.931c0-1.589.434-2.744 1.302-3.467.867-.722 2.063-1.083 3.586-1.083 1.719 0 3.11.312 4.173.937v-1.58c0-1.998-1.16-2.998-3.48-2.998-.763 0-1.533.107-2.313.322-.78.213-1.434.535-1.966.963v-1.927c.532-.34 1.252-.606 2.166-.803.912-.196 1.82-.295 2.723-.295 1.488 0 2.66.366 3.52 1.098M101 12l-5.919 15.046c-.572 1.465-1.24 2.49-2.006 3.076-.765.585-1.544.878-2.337.878-.442 0-.875-.082-1.3-.247V28.94c.37.165.765.247 1.19.247.793 0 1.41-.284 1.853-.85.443-.569.858-1.428 1.245-2.582L88 12h2.268l4.37 11.175L99.009 12H101z"/>
        <mask id="b" fill="#fff">
            <use xlink:href="#a"/>
        </mask>
        <path fill="#7493DA" d="M103 25h3v-3h-3zM109.1 25h1.8V11.534h-1.8V25zM109 9.132h2V7h-2v2.132zM123.117 17.96c0-1.677-.322-2.963-.966-3.854-.646-.893-1.7-1.34-3.164-1.34-2.737 0-4.104 1.732-4.104 5.194 0 3.516 1.367 5.273 4.104 5.273 2.754 0 4.13-1.757 4.13-5.273m-8.614 5.22C113.5 21.966 113 20.226 113 17.96c0-2.302.51-4.038 1.53-5.206 1.02-1.169 2.496-1.754 4.43-1.754 2.04 0 3.557.62 4.55 1.86.994 1.241 1.49 2.941 1.49 5.1 0 2.213-.523 3.939-1.569 5.18-1.045 1.24-2.518 1.86-4.418 1.86-2.004 0-3.507-.607-4.51-1.82" mask="url(#b)"/>
    </g>
</svg>
