<svg xmlns="http://www.w3.org/2000/svg" xmlns:xlink="http://www.w3.org/1999/xlink" width="93" height="25" viewBox="0 0 93 25">
    <defs>
        <path id="a" d="M0 26h93V0H0z"/>
    </defs>
    <g fill="none" fill-rule="evenodd">
        <path fill="#BDC4DA" d="M17.51 20.821c2.933.457 5.142-1.33 6.246-5.098l.007-.021c2.382-7.055 2.777-12.016 1.08-13.612C23.155.475 18.179.88 11.192 3.196c-3.727 1.067-5.476 3.266-5 6.232 4.307-1.391 9.722-2.55 11.83-.54 2.149 2.022.941 7.532-.512 11.933zM18.36 22c-.55 0-1.12-.072-1.709-.219l-.573-.142.253-.82c1.952-5.79 2.284-9.84.919-11.125-1.366-1.302-5.426-.962-11.142.933a4.15 4.15 0 0 0-.161.047l-.575.193-.147-.586c-.953-3.82 1.154-6.865 5.634-8.149 5.287-1.753 12.16-3.328 14.757-.848 2.63 2.475 1.024 9.391-.789 14.762C23.702 19.876 21.347 22 18.36 22z"/>
        <path fill="#BDC4DA" d="M6.345 10.494c.592 1.716 1.941 3.567 4.018 5.509 2.039 1.913 4.061 3.2 5.884 3.75 1.862-5.202 2.165-8.846.827-10.014-1.33-1.176-5.23-.9-10.73.755zM16.99 21l-.512-.118c-2.179-.503-4.502-1.902-6.907-4.159-2.406-2.25-3.902-4.418-4.448-6.443L5 9.821l.486-.15a2.92 2.92 0 0 1 .192-.054c4.339-1.335 10-2.533 12.163-.621 2.187 1.91.873 7.198-.618 11.3L16.99 21z"/>
        <path fill="#BDC4DA" d="M4.345 10.36c-1.733.635-2.819 1.654-3.154 2.966-.5 1.954.683 4.496 3.331 7.156 2.6 2.621 5.097 3.812 7.035 3.352 1.334-.316 2.385-1.403 3.06-3.157-1.945-.628-4.002-2.027-6.125-4.167-2.126-2.137-3.518-4.203-4.147-6.15M10.695 25c-1.656 0-3.993-.796-6.94-3.768C.009 17.47-.275 14.713.147 13.064c.465-1.822 1.988-3.17 4.404-3.9L5.094 9l.137.546c.48 1.92 1.836 4.01 4.029 6.214 2.158 2.176 4.296 3.574 6.184 4.042l.556.138-.173.542c-.781 2.435-2.171 3.953-4.02 4.391a4.815 4.815 0 0 1-1.112.127M40.688 15.663c.49-.708.736-1.673.736-2.896 0-1.107-.256-1.98-.767-2.617-.512-.637-1.307-.956-2.385-.956-.456 0-.93.058-1.42.174a5.732 5.732 0 0 0-1.359.502v5.87c0 .374.242.632.726.773.484.142 1.058.212 1.721.212 1.34 0 2.257-.353 2.748-1.062m1.12-6.459c.795.856 1.192 2.044 1.192 3.563-.014 1.957-.498 3.318-1.451 4.084-.954.766-2.088 1.149-3.402 1.149C35.382 18 34 17.356 34 16.069V4h1.493v4.48c.429-.155.91-.287 1.442-.396.532-.11.977-.164 1.337-.164 1.562 0 2.74.428 3.536 1.284M51.564 15.84c.573-.644.86-1.513.86-2.607 0-1.21-.235-2.172-.705-2.886-.47-.715-1.32-1.072-2.55-1.072-.747 0-1.38.08-1.898.241-.519.161-.778.377-.778.647v5.967c.83.45 1.687.675 2.572.675 1.092 0 1.925-.321 2.499-.965m1.068-6.594c.912.83 1.368 2.16 1.368 3.987 0 1.506-.428 2.69-1.285 3.554-.857.862-2.074 1.293-3.65 1.293-.36 0-.775-.052-1.245-.154a8.37 8.37 0 0 1-1.327-.406V22H45V9.912c0-.708.418-1.2 1.255-1.477.836-.277 1.815-.422 2.934-.435 1.383 0 2.53.415 3.443 1.246M60.99 16.575c.4-.134.6-.404.6-.812V13.62a5.367 5.367 0 0 0-1.218-.392 7.132 7.132 0 0 0-1.45-.143c-.81 0-1.436.153-1.874.459-.438.306-.657.752-.657 1.338 0 .663.258 1.144.773 1.443.515.3 1.14.45 1.874.45.902 0 1.553-.067 1.952-.2m1.072-7.792c.625.523.938 1.281.938 2.275v4.627c0 .918-.38 1.533-1.14 1.845-.76.312-1.81.469-3.15.469-1.018 0-1.89-.224-2.618-.67C55.364 16.884 55 16.14 55 15.094c0-1.135.315-1.96.947-2.477.63-.516 1.5-.774 2.608-.774 1.25 0 2.261.223 3.035.67v-1.129c0-1.427-.844-2.141-2.532-2.141a6.43 6.43 0 0 0-1.681.23c-.567.152-1.043.382-1.43.688V8.784c.387-.242.91-.433 1.575-.573A9.56 9.56 0 0 1 59.502 8c1.082 0 1.936.262 2.56.784M74 8l-4.098 10.295c-.396 1.002-.858 1.703-1.388 2.104-.53.4-1.07.601-1.618.601-.307 0-.607-.056-.9-.17v-1.239c.255.113.529.17.823.17.55 0 .977-.195 1.283-.583.307-.389.594-.977.862-1.766L65 8h1.57l3.026 7.646L72.621 8H74z"/>
        <mask id="b" fill="#fff">
            <use xlink:href="#a"/>
        </mask>
        <path fill="#BDC4DA" d="M76 18h2v-2h-2zM80.1 18h1.8V8.274h-1.8V18zM80 6.54h2V5h-2v1.54zM91.588 12.972c0-1.198-.242-2.117-.725-2.754-.484-.637-1.275-.956-2.373-.956-2.052 0-3.078 1.237-3.078 3.71 0 2.51 1.026 3.766 3.078 3.766 2.066 0 3.098-1.255 3.098-3.766m-6.46 3.728C84.375 15.833 84 14.59 84 12.972c0-1.645.382-2.885 1.147-3.72C85.912 8.419 87.02 8 88.47 8c1.53 0 2.668.443 3.413 1.329.745.886 1.117 2.1 1.117 3.643 0 1.58-.392 2.813-1.177 3.699C91.04 17.557 89.935 18 88.51 18c-1.504 0-2.63-.433-3.383-1.3" mask="url(#b)"/>
    </g>
</svg>
