<svg xmlns="http://www.w3.org/2000/svg" xmlns:xlink="http://www.w3.org/1999/xlink" width="124" height="35" viewBox="0 0 124 35">
    <defs>
        <path id="a" d="M0 35h124V0H0z"/>
    </defs>
    <g fill="none" fill-rule="evenodd">
        <path fill="#C7C7FF" d="M21.49 27.446c3.867.602 6.779-1.753 8.234-6.72l.009-.029c3.14-9.299 3.66-15.839 1.425-17.942C28.93.626 22.37 1.16 13.16 4.213 8.248 5.619 5.943 8.518 6.57 12.428c5.677-1.834 12.815-3.361 15.595-.713 2.832 2.666 1.24 9.93-.676 15.73M22.61 29a9.298 9.298 0 0 1-2.252-.288l-.755-.188.333-1.082c2.573-7.632 3.012-12.97 1.211-14.663-1.8-1.716-7.152-1.268-14.687 1.229a5.47 5.47 0 0 0-.212.063l-.758.254-.193-.772C4.04 8.518 6.817 4.503 12.723 2.81 19.693.5 28.751-1.577 32.176 1.693c3.466 3.262 1.35 12.379-1.04 19.458C29.652 26.2 26.547 29 22.61 29"/>
        <path fill="#C7C7FF" d="M7.825 13.645c.804 2.508 2.635 5.213 5.453 8.052 2.768 2.796 5.512 4.676 7.985 5.48 2.528-7.603 2.939-12.928 1.123-14.635-1.806-1.72-7.099-1.314-14.56 1.103zM22.272 29l-.694-.173c-2.958-.735-6.111-2.78-9.375-6.078-3.265-3.288-5.294-6.457-6.035-9.416L6 12.662l.66-.22c.085-.03.171-.055.26-.079 5.889-1.95 13.572-3.702 16.507-.908 2.969 2.792 1.184 10.52-.838 16.517L22.272 29z"/>
        <path fill="#C7C7FF" d="M5.975 14.87c-2.383.873-3.876 2.274-4.338 4.078-.686 2.688.94 6.183 4.58 9.84 3.575 3.604 7.01 5.241 9.674 4.609 1.835-.435 3.28-1.93 4.208-4.341-2.675-.864-5.503-2.787-8.422-5.73-2.923-2.938-4.838-5.78-5.702-8.457M14.706 35c-2.277 0-5.49-1.094-9.543-5.18-5.15-5.175-5.54-8.965-4.961-11.233.64-2.504 2.733-4.358 6.056-5.361L7.004 13l.189.751c.66 2.64 2.525 5.514 5.54 8.544 2.966 2.992 5.906 4.914 8.503 5.558l.764.19-.238.745c-1.074 3.347-2.985 5.435-5.526 6.038a6.62 6.62 0 0 1-1.53.174M54.917 21.829c.654-.961.982-2.271.982-3.931 0-1.503-.342-2.687-1.023-3.551-.682-.865-1.742-1.298-3.18-1.298a8.14 8.14 0 0 0-1.894.236 7.559 7.559 0 0 0-1.811.682v7.967c0 .507.322.856.968 1.048.645.192 1.41.288 2.294.288 1.788 0 3.01-.48 3.664-1.441m1.493-8.766c1.06 1.162 1.59 2.774 1.59 4.835-.018 2.656-.664 4.503-1.935 5.543C54.793 24.481 53.28 25 51.53 25c-3.687 0-5.53-.874-5.53-2.62V6h1.99v6.08a13.8 13.8 0 0 1 1.923-.538c.71-.148 1.304-.222 1.783-.222 2.083 0 3.654.58 4.714 1.743M68.752 21.64c.765-.874 1.147-2.053 1.147-3.538 0-1.642-.313-2.948-.94-3.917-.626-.97-1.76-1.455-3.401-1.455-.996 0-1.839.109-2.53.328-.692.218-1.037.51-1.037.877v8.098c1.107.612 2.248.917 3.429.917 1.455 0 2.566-.436 3.332-1.31m1.424-8.95C71.392 13.819 72 15.622 72 18.103c0 2.044-.57 3.651-1.714 4.823-1.143 1.17-2.765 1.755-4.866 1.755-.48 0-1.033-.07-1.66-.21a11.017 11.017 0 0 1-1.769-.55V30H60V13.594c0-.96.557-1.628 1.673-2.004 1.115-.376 2.42-.572 3.913-.59 1.843 0 3.373.564 4.59 1.69M82.236 23.005c.55-.187.825-.566.825-1.137v-2.999a7.286 7.286 0 0 0-1.675-.548 9.638 9.638 0 0 0-1.992-.2c-1.116 0-1.976.213-2.578.641-.602.43-.904 1.053-.904 1.875 0 .928.355 1.601 1.064 2.02.708.42 1.567.63 2.577.63 1.24 0 2.134-.094 2.683-.282m1.475-10.907C84.57 12.83 85 13.891 85 15.283v6.477c0 1.285-.523 2.146-1.568 2.584-1.045.437-2.488.656-4.33.656-1.4 0-2.6-.313-3.6-.938C74.5 23.439 74 22.395 74 20.931c0-1.589.434-2.744 1.302-3.467.867-.722 2.063-1.083 3.586-1.083 1.719 0 3.11.312 4.173.937v-1.58c0-1.998-1.16-2.998-3.48-2.998-.763 0-1.533.107-2.313.322-.78.213-1.434.535-1.966.963v-1.927c.532-.34 1.252-.606 2.166-.803.912-.196 1.82-.295 2.723-.295 1.488 0 2.66.366 3.52 1.098M99 11l-5.463 14.254c-.529 1.388-1.146 2.358-1.852 2.914-.706.554-1.425.832-2.157.832-.409 0-.809-.078-1.2-.234v-1.717c.34.156.705.235 1.098.235.732 0 1.302-.27 1.71-.807.409-.538.792-1.352 1.15-2.445L87 11h2.094l4.034 10.587L97.162 11H99z"/>
        <mask id="b" fill="#fff">
            <use xlink:href="#a"/>
        </mask>
        <path fill="#C7C7FF" d="M101 25h3v-3h-3zM107.1 25h1.8V11.534h-1.8V25zM107 9.132h2V7h-2v2.132zM122.117 17.96c0-1.677-.322-2.963-.966-3.854-.646-.893-1.7-1.34-3.164-1.34-2.737 0-4.104 1.732-4.104 5.194 0 3.516 1.367 5.273 4.104 5.273 2.754 0 4.13-1.757 4.13-5.273m-8.614 5.22C112.5 21.966 112 20.226 112 17.96c0-2.302.51-4.038 1.53-5.206 1.02-1.169 2.496-1.754 4.43-1.754 2.04 0 3.557.62 4.55 1.86.994 1.241 1.49 2.941 1.49 5.1 0 2.213-.523 3.939-1.569 5.18-1.045 1.24-2.518 1.86-4.418 1.86-2.004 0-3.507-.607-4.51-1.82" mask="url(#b)"/>
    </g>
</svg>
