<?xml version="1.0" encoding="utf-8"?>
<!-- Generator: Adobe Illustrator 17.1.0, SVG Export Plug-In . SVG Version: 6.00 Build 0)  -->
<!DOCTYPE svg PUBLIC "-//W3C//DTD SVG 1.1//EN" "http://www.w3.org/Graphics/SVG/1.1/DTD/svg11.dtd">
<svg version="1.1" id="Layer_1" xmlns="http://www.w3.org/2000/svg" xmlns:xlink="http://www.w3.org/1999/xlink" x="0px" y="0px"
	 width="15px" height="15px" viewBox="0 0 15 15" enable-background="new 0 0 15 15" xml:space="preserve">
<path fill="#A9A9A9" d="M15.0002441,3.6104958c0,0.9772623-0.4208984,1.892957-1.1855469,2.578018l-9.0219727,8.0804939
	C4.2487793,14.7566614,3.5339355,15,2.8190918,15c-0.7143555,0-1.4291992-0.2433386-1.9731445-0.7300148
	c-0.5458984-0.4896088-0.8461914-1.1443748-0.8461914-1.8431168c0-0.6997204,0.300293-1.3535089,0.8461914-1.8421402
	l5.7421875-5.1428428c0.6445313-0.5775619,1.6582031-0.5804939,2.3056641,0
	C9.2209473,5.734087,9.4006348,6.1274352,9.4006348,6.5491238S9.2209473,7.3641605,8.8937988,7.6563621l-4.1005859,3.6730409
	c-0.2055664,0.1856794-0.5224609,0.1671114-0.7060547-0.0390911c-0.184082-0.205225-0.1665039-0.5218582,0.0390625-0.7055836
	l4.1015625-3.6740174c0.1113281-0.1001692,0.1728516-0.2286792,0.1728516-0.361587s-0.0615234-0.2614179-0.1728516-0.361587
	c-0.2636719-0.2360091-0.7089844-0.2350316-0.9726563,0l-5.7421875,5.1428428
	c-0.3310547,0.2961111-0.5131836,0.686039-0.5131836,1.096489s0.1821289,0.8003778,0.5131836,1.0974655
	c0.7207031,0.6449928,1.8925781,0.6449928,2.612793-0.0009775l9.0219727-8.0804939
	c0.5498047-0.4925399,0.8525391-1.1433969,0.8525391-1.8318782c-0.0009766-0.6879926-0.3037109-1.3383608-0.8525391-1.8304123
	c-1.1738281-1.0505571-3.0810547-1.0505571-4.2529297,0L1.5129395,8.3917522
	C1.3068848,8.5754776,0.9909668,8.5578861,0.8068848,8.3516846c-0.184082-0.2052259-0.1665039-0.5218587,0.0390625-0.7060723
	l7.3818359-6.6106915c1.5390625-1.3798945,4.0458984-1.3798945,5.5869141,0
	C14.5783691,1.7194932,14.9992676,2.6342106,15.0002441,3.6104958z"/>
</svg>
