<?xml version="1.0" encoding="utf-8"?>
<!-- Generator: Adobe Illustrator 17.1.0, SVG Export Plug-In . SVG Version: 6.00 Build 0)  -->
<!DOCTYPE svg PUBLIC "-//W3C//DTD SVG 1.1//EN" "http://www.w3.org/Graphics/SVG/1.1/DTD/svg11.dtd">
<svg version="1.1" id="Layer_1" xmlns="http://www.w3.org/2000/svg" xmlns:xlink="http://www.w3.org/1999/xlink" x="0px" y="0px"
	 width="17px" height="17px" viewBox="0 0 17 17" enable-background="new 0 0 17 17" xml:space="preserve">
<path fill="#2C2C2C" d="M12.5895996,9.9997559l-0.2451172-0.0097656l-0.1582031,0.1865234
	c-0.9453125,1.1162109-2.2910156,1.7558594-3.690918,1.7558594s-2.7451172-0.6396484-3.690918-1.7548828l-0.1586914-0.1875
	L4.401123,10.0007324c-2.4677734,0.109375-4.4008789,1.9580078-4.4008789,4.2089844v0.6894531
	c0,1.1582031,1.0224609,2.1005859,2.2792969,2.1005859h12.440918c1.2568359,0,2.2792969-0.9423828,2.2792969-2.1005859v-0.6894531
	C16.9997559,11.954834,15.0622559,10.1052246,12.5895996,9.9997559z M15.9997559,14.8991699
	c0,0.6064453-0.5742188,1.1005859-1.2792969,1.1005859H2.279541c-0.7055664,0-1.2792969-0.4941406-1.2792969-1.1005859v-0.6894531
	c0-1.6455078,1.3930664-3.0097656,3.2119141-3.1923828c1.125,1.2197266,2.671875,1.9150391,4.2832031,1.9150391
	c1.6118164,0,3.1586914-0.6953125,4.2836914-1.9169922c1.8242188,0.1806641,3.2207031,1.5458984,3.2207031,3.1943359V14.8991699z
	 M8.4953613,9.9997559c2.480957,0,4.4995117-2.2426758,4.4995117-4.9995117s-2.0185547-5-4.4995117-5
	c-2.4814453,0-4.5,2.2431641-4.5,5S6.013916,9.9997559,8.4953613,9.9997559z M8.4953613,1.0002441
	c1.9291992,0,3.4995117,1.7944336,3.4995117,4s-1.5703125,3.9995117-3.4995117,3.9995117c-1.9296875,0-3.5-1.7939453-3.5-3.9995117
	S6.5656738,1.0002441,8.4953613,1.0002441z"/>
</svg>
