<?xml version="1.0" encoding="utf-8"?>
<!-- Generator: Adobe Illustrator 17.1.0, SVG Export Plug-In . SVG Version: 6.00 Build 0)  -->
<!DOCTYPE svg PUBLIC "-//W3C//DTD SVG 1.1//EN" "http://www.w3.org/Graphics/SVG/1.1/DTD/svg11.dtd">
<svg version="1.1" id="Layer_1" xmlns="http://www.w3.org/2000/svg" xmlns:xlink="http://www.w3.org/1999/xlink" x="0px" y="0px"
	 width="15px" height="19px" viewBox="0 0 15 19" enable-background="new 0 0 15 19" xml:space="preserve">
<path fill="#2C2C2C" d="M7.5002441,0c-4.1357422,0-7.5,2.9155273-7.5,6.4995117
	c0,6.1606445,6.8818359,12.1293945,7.1748047,12.3803711C7.2683105,18.9599609,7.3845215,19,7.5002441,19
	s0.2319336-0.0400391,0.3251953-0.1201172c0.2929688-0.2509766,7.1743164-6.2197266,7.1743164-12.3803711
	C14.9997559,2.9155273,11.635498,0,7.5002441,0z M7.5002441,17.8261719c-1.3588867-1.2578125-6.5-6.3496094-6.5-11.3266602
	C1.0002441,3.4672852,3.9162598,1,7.5002441,1c3.5834961,0,6.4995117,2.4672852,6.4995117,5.4995117
	C13.9997559,11.4707031,8.8581543,16.5673828,7.5002441,17.8261719z M7.5002441,5c-1.378418,0-2.5,1.1210938-2.5,2.4990234
	c0,1.378418,1.121582,2.4990234,2.5,2.4990234s2.4995117-1.1206055,2.4995117-2.4990234
	C9.9997559,6.1210938,8.8786621,5,7.5002441,5z M7.5002441,8.9985352c-0.8271484,0-1.5-0.6728516-1.5-1.4995117
	S6.6730957,6,7.5002441,6c0.8266602,0,1.4995117,0.6723633,1.4995117,1.4990234S8.3269043,8.9985352,7.5002441,8.9985352z"/>
</svg>
