<?xml version="1.0" encoding="utf-8"?>
<!-- Generator: Adobe Illustrator 17.1.0, SVG Export Plug-In . SVG Version: 6.00 Build 0)  -->
<!DOCTYPE svg PUBLIC "-//W3C//DTD SVG 1.1//EN" "http://www.w3.org/Graphics/SVG/1.1/DTD/svg11.dtd">
<svg version="1.1" id="Layer_1" xmlns="http://www.w3.org/2000/svg" xmlns:xlink="http://www.w3.org/1999/xlink" x="0px" y="0px"
	 width="13px" height="16px" viewBox="0 0 13 16" enable-background="new 0 0 13 16" xml:space="preserve">
<path fill="#FFE04A" d="M6.5002441,0.0002441c-3.5839844,0-6.5,2.4672852-6.5,5.4995117
	c0,5.1757813,5.9277344,10.1738281,6.1801758,10.3837891c0.0922852,0.0771484,0.2060547,0.1162109,0.3198242,0.1162109
	s0.2275391-0.0390625,0.3203125-0.1162109c0.2519531-0.2099609,6.1791992-5.2080078,6.1791992-10.3837891
	C12.9997559,2.4675293,10.0837402,0.0002441,6.5002441,0.0002441z M6.5002441,14.8337402
	c-1.2197266-1.1054688-5.5-5.2724609-5.5-9.3339844c0-2.480957,2.4672852-4.4995117,5.5-4.4995117
	s5.4995117,2.0185547,5.4995117,4.4995117C11.9997559,9.5563965,7.7194824,13.7282715,6.5002441,14.8337402z M6.5002441,4.0002441
	c-1.378418,0-2.5,1.121582-2.5,2.5s1.121582,2.5,2.5,2.5s2.4995117-1.121582,2.4995117-2.5S7.8786621,4.0002441,6.5002441,4.0002441
	z M6.5002441,8.0002441c-0.8271484,0-1.5-0.6728516-1.5-1.5s0.6728516-1.5,1.5-1.5c0.8266602,0,1.4995117,0.6728516,1.4995117,1.5
	S7.3269043,8.0002441,6.5002441,8.0002441z"/>
</svg>
