<?xml version="1.0" encoding="utf-8"?>
<!-- Generator: Adobe Illustrator 17.1.0, SVG Export Plug-In . SVG Version: 6.00 Build 0)  -->
<!DOCTYPE svg PUBLIC "-//W3C//DTD SVG 1.1//EN" "http://www.w3.org/Graphics/SVG/1.1/DTD/svg11.dtd">
<svg version="1.1" id="Layer_1" xmlns="http://www.w3.org/2000/svg" xmlns:xlink="http://www.w3.org/1999/xlink" x="0px" y="0px"
	 width="164px" height="360px" viewBox="0 0 164 360" enable-background="new 0 0 164 360" xml:space="preserve">
<path fill="#FFFFFF" d="M70.5751953,112.8515396H4.1043091V99.0181885h70.0834351v-8.0089111h-7.2250366l-2.1674805-13.8334122
	h11.5601196c1.4450073,0,2.1674805-0.7281799,2.1674805-2.184166V51.6931381
	C65.9918213,70.6231842,43.119812,83.7284775,9.8843384,91.0092773l-3.6124878-12.377182
	c26.4844971-5.8248062,45.0326538-14.8004112,55.6333008-26.9389572H8.4393311V40.0441933h83.8112183
	c-14.9356079-5.8248672-27.9407959-9.9428444-39.015625-12.3774261l7.9476929-9.4648991
	c7.2250977,1.456049,14.2017822,3.1624527,20.9528198,5.096386l18.0626831-8.7367229H22.8895264V2.9121597h95.3713989L121.1509399,0
	l10.8377075,8.7367229c3.8495483,3.4015179,2.8899536,4.8577499-2.8900146,4.368453l-34.680603,15.2897081
	c4.335083,0.9782887,8.670166,2.4345818,13.0053101,4.3685131l-5.7800903,7.2807961h39.7379761l2.8900146-2.912281
	l12.2827759,11.6489449c1.4450073,1.9453468,0.2369995,3.1627579-3.6126099,3.6404572
	c-10.6005859,11.1716118-24.0911865,21.3646278-40.4605713,30.5792961l-6.5025024-11.6492538
	c9.144165-4.3685074,18.5368042-10.9211273,28.1777954-19.6582184H92.9730225v29.8512421
	c0.4741821,4.8575058-0.9708252,8.0088501-4.335022,9.4648972v8.0089111h71.5285034v13.8333511H92.2505493
	c12.0343018,15.050827,35.4030762,25.2438431,70.0834961,30.5792923l-3.6125488,14.5615387
	c-28.4262695-3.4015198-51.7835693-14.3112946-70.0834961-32.7634048v40.0441971H74.1877441v-38.5882645
	C60.211731,142.702713,37.5768433,153.8626709,6.2718506,160.1764679l-4.335144-14.5615234
	C33.2416992,139.7904968,56.125,128.8693085,70.5751953,112.8515396z M157.5021973,218.7534485v-13.8334045H117.041748v13.8334045
	H157.5021973z M91.7538452,213.6567535c3.3641968,5.3468628,6.7396851,10.9212036,10.1151733,16.7459412l11.5601196-9.4651947
	c-3.8609009-6.7913818-7.7105103-11.8877106-11.5601196-15.2892914L91.7538452,213.6567535z M2.8850098,234.0430908
	l7.9476929,13.1053619c16.8547363-12.6163635,29.3745117-25.7215424,37.5704346-39.3161316
	c3.3641968,0,4.086792-1.2058258,2.1676025-3.6404572l-12.2827148-8.7366638
	C30.5775146,210.505722,18.7802124,223.3721313,2.8850098,234.0430908z M108.371521,267.5343628l-13.005127,1.4562988
	c4.335022,13.5945435,6.7397461,30.3401794,7.2251587,50.2372742l13.7276611-1.4563599
	C114.8741455,298.8418884,112.2212524,282.0959473,108.371521,267.5343628z M114.1516113,250.0606232v13.8334808h17.340332v79.36026
	c0,1.4562378-0.7225342,2.1841125-2.1676025,2.1841125h-13.7277222l2.8900757,13.8336487h15.1727295
	c8.1846924,0,12.2827148-4.1296997,12.2827148-12.3774109V263.894104h18.0628052v-13.8334808H114.1516113z M47.680603,237.6834412
	l-11.5600586-6.5525665c-9.1556396,21.3643188-21.2012329,37.859787-36.1254883,49.5091095l7.2249756,14.5615845
	c5.2947998-4.8465881,9.8668823-9.46521,13.7277832-13.8337708V360h14.4501953v-97.5619507
	c4.335144-7.2808075,7.9476318-14.3113708,10.8375854-21.114151
	C49.5998535,241.3238983,50.0852051,240.1180725,47.680603,237.6834412z M112.706604,234.7712708H88.1412354v-32.0353394
	c3.3641968-2.4232941,3.1271973-3.8795166-0.7225342-4.368454H73.6911011v36.4037933H51.2932129v13.8334198h22.3978882v105.570755
	h14.4501343v-105.570755h24.5653687V234.7712708z M65.7434082,269.7187805l-13.0050659-2.1844177
	c-0.4855347,18.9300537-3.8610229,38.3492126-10.1152344,58.2461853l13.7277222,5.0966492
	c6.7396851-20.8640442,9.8668213-39.7940979,9.3925781-56.789917
	C68.6334229,272.1533508,68.6334229,270.697113,65.7434082,269.7187805z"/>
</svg>
