<?xml version="1.0" encoding="utf-8"?>
<!-- Generator: Adobe Illustrator 17.1.0, SVG Export Plug-In . SVG Version: 6.00 Build 0)  -->
<!DOCTYPE svg PUBLIC "-//W3C//DTD SVG 1.1//EN" "http://www.w3.org/Graphics/SVG/1.1/DTD/svg11.dtd">
<svg version="1.1" id="Layer_1" xmlns="http://www.w3.org/2000/svg" xmlns:xlink="http://www.w3.org/1999/xlink" x="0px" y="0px"
	 width="20px" height="20px" viewBox="0 0 20 20" enable-background="new 0 0 20 20" xml:space="preserve">
<path fill="#2B2B2B" d="M12,10c0,1.1028442-0.8971558,2-2,2c-1.1027832,0-2-0.8971558-2-2c0-1.1027832,0.8972168-2,2-2
	C11.1028442,8,12,8.8972168,12,10z M20,5.6923218v8.6154175C20,17.4465942,17.4463501,20,14.3076172,20H5.6923218
	C2.5534058,20,0,17.4465942,0,14.3077393V5.6923218C0,2.5536499,2.5534058,0,5.6923218,0h8.6152954
	C17.4463501,0,20,2.5536499,20,5.6923218z M15,10c0-2.756958-2.242981-5-5-5c-2.756958,0-5,2.243042-5,5c0,2.7570801,2.243042,5,5,5
	C12.757019,15,15,12.7570801,15,10z M17,4.5001221c0-0.8285522-0.6715088-1.500061-1.499939-1.500061
	C14.6715698,3.000061,14,3.6715698,14,4.5001221s0.6715698,1.499939,1.500061,1.499939
	C16.3284912,6.000061,17,5.3286743,17,4.5001221z"/>
</svg>
