<?xml version="1.0" encoding="utf-8"?>
<!-- Generator: Adobe Illustrator 17.1.0, SVG Export Plug-In . SVG Version: 6.00 Build 0)  -->
<!DOCTYPE svg PUBLIC "-//W3C//DTD SVG 1.1//EN" "http://www.w3.org/Graphics/SVG/1.1/DTD/svg11.dtd">
<svg version="1.1" id="Layer_1" xmlns="http://www.w3.org/2000/svg" xmlns:xlink="http://www.w3.org/1999/xlink" x="0px" y="0px"
	 width="15px" height="11px" viewBox="0 0 15 11" enable-background="new 0 0 15 11" xml:space="preserve">
<path fill="#A9A9A9" d="M13.5666504-0.0002441H1.4333496c-0.7905273,0-1.4335938,0.6611328-1.4335938,1.4741211v8.0517578
	c0,0.8134766,0.6430664,1.4746094,1.4335938,1.4746094h12.1333008c0.7900391,0,1.4335938-0.6611328,1.4335938-1.4746094V1.473877
	C15.0002441,0.6608887,14.3566895-0.0002441,13.5666504-0.0002441z M2.3497314,0.9997559h10.3001099L8.045166,5.6335449
	C7.8967285,5.782959,7.7023926,5.8649902,7.4992676,5.8649902S7.1018066,5.7824707,6.9533691,5.6330566L2.3497314,0.9997559z
	 M13.8916016,1.1687012c0.0652466,0.0830078,0.1086426,0.1875,0.1086426,0.3051758v6.2937012L10.0460205,5.038208
	L13.8916016,1.1687012z M1.1082764,1.1689453l3.8272705,3.8522949L0.9997559,7.743103V1.473877
	C0.9997559,1.3562622,1.0431519,1.2518921,1.1082764,1.1689453z M13.5666504,10.0002441H1.4333496
	c-0.2392578,0-0.4335938-0.2128906-0.4335938-0.4746094V8.9584351l4.6514893-3.2167969l0.5926514,0.5964966
	C6.5812988,6.6779785,7.0270996,6.864502,7.498291,6.8654785c0.0009766,0,0.0009766,0,0.0009766,0
	c0.4716797,0,0.9169922-0.1875,1.2548828-0.5273438l0.5753784-0.5789185l4.6707153,3.2229614v0.543457
	C14.0002441,9.7873535,13.8059082,10.0002441,13.5666504,10.0002441z"/>
</svg>
