<?xml version="1.0" encoding="utf-8"?>
<!-- Generator: Adobe Illustrator 17.1.0, SVG Export Plug-In . SVG Version: 6.00 Build 0)  -->
<!DOCTYPE svg PUBLIC "-//W3C//DTD SVG 1.1//EN" "http://www.w3.org/Graphics/SVG/1.1/DTD/svg11.dtd">
<svg version="1.1" id="Layer_1" xmlns="http://www.w3.org/2000/svg" xmlns:xlink="http://www.w3.org/1999/xlink" x="0px" y="0px"
	 width="16px" height="12px" viewBox="0 0 16 12" enable-background="new 0 0 16 12" xml:space="preserve">
<path fill="#2C2C2C" d="M16,1c0,0.5523071-0.5655518,1-1.2631836,1H1.2631836C0.5655518,2,0,1.5523071,0,1
	c0-0.5522461,0.5655518-1,1.2631836-1h13.4736328C15.4344482,0,16,0.4477539,16,1z M11.7368164,5H1.2631836
	C0.5655518,5,0,5.4477539,0,6c0,0.5523071,0.5655518,1,1.2631836,1h10.4736328C12.4344482,7,13,6.5523071,13,6
	C13,5.4477539,12.4344482,5,11.7368164,5z M8.7368164,10H1.2631836C0.5655518,10,0,10.4477539,0,11
	c0,0.5523071,0.5655518,1,1.2631836,1h7.4736328C9.4344482,12,10,11.5523071,10,11C10,10.4477539,9.4344482,10,8.7368164,10z"/>
</svg>
