<?xml version="1.0" encoding="utf-8"?>
<!-- Generator: Adobe Illustrator 17.1.0, SVG Export Plug-In . SVG Version: 6.00 Build 0)  -->
<!DOCTYPE svg PUBLIC "-//W3C//DTD SVG 1.1//EN" "http://www.w3.org/Graphics/SVG/1.1/DTD/svg11.dtd">
<svg version="1.1" id="Layer_1" xmlns="http://www.w3.org/2000/svg" xmlns:xlink="http://www.w3.org/1999/xlink" x="0px" y="0px"
	 width="20px" height="20px" viewBox="0 0 20 20" enable-background="new 0 0 20 20" xml:space="preserve">
<path fill="#2B2B2B" d="M18,0.0000018H2c-1.0324707,0-2,0.9494629-2,2v17.6188354c0,0.3389282,0.40271,0.508606,0.6382446,0.2689819
	c0,0,5.1138306-3.8878174,5.3617554-3.8878174h12c1.0324707,0,2-0.9494629,2-2v-12C20,0.9494647,19.0324707,0.0000018,18,0.0000018z
	 M6,9.0000019c-0.5523071,0-1-0.4477539-1-1c0-0.5523071,0.4476929-1,1-1c0.5522461,0,1,0.4476929,1,1
	C7,8.552248,6.5522461,9.0000019,6,9.0000019z M10,9.0000019c-0.5523071,0-1-0.4477539-1-1c0-0.5523071,0.4476929-1,1-1
	c0.5522461,0,1,0.4476929,1,1C11,8.552248,10.5522461,9.0000019,10,9.0000019z M14,9.0000019c-0.5523071,0-1-0.4477539-1-1
	c0-0.5523071,0.4476929-1,1-1c0.5522461,0,1,0.4476929,1,1C15,8.552248,14.5522461,9.0000019,14,9.0000019z"/>
</svg>
