<?xml version="1.0" encoding="utf-8"?>
<!-- Generator: Adobe Illustrator 17.1.0, SVG Export Plug-In . SVG Version: 6.00 Build 0)  -->
<!DOCTYPE svg PUBLIC "-//W3C//DTD SVG 1.1//EN" "http://www.w3.org/Graphics/SVG/1.1/DTD/svg11.dtd">
<svg version="1.1" id="Layer_1" xmlns="http://www.w3.org/2000/svg" xmlns:xlink="http://www.w3.org/1999/xlink" x="0px" y="0px"
	 width="17px" height="17px" viewBox="0 0 17 17" enable-background="new 0 0 17 17" xml:space="preserve">
<path fill="#2C2C2C" d="M14.1289063,1c-0.2763672,0-0.5,0.2236328-0.5,0.5s0.2236328,0.5,0.5,0.5
	C15.1601563,2,16,2.8393555,16,3.8706055V5H1V3.8706055C1,2.8393555,1.8393555,2,2.8706055,2c0.2763672,0,0.5-0.2236328,0.5-0.5
	s-0.2236328-0.5-0.5-0.5C1.2875977,1,0,2.2875977,0,3.8706055v10.2583008C0,15.7119141,1.2875977,17,2.8706055,17h11.2583008
	C15.7119141,17,17,15.7119141,17,14.1289063V3.8706055C17,2.2875977,15.7119141,1,14.1289063,1z M16,14.1289063
	C16,15.1601563,15.1601563,16,14.1289063,16H2.8706055C1.8393555,16,1,15.1601563,1,14.1289063V6h15V14.1289063z M5,2.5v-2
	C5,0.2236328,5.2236328,0,5.5,0S6,0.2236328,6,0.5v2C6,2.7763672,5.7763672,3,5.5,3S5,2.7763672,5,2.5z M8,2.5v-2
	C8,0.2236328,8.2236328,0,8.5,0S9,0.2236328,9,0.5v2C9,2.7763672,8.7763672,3,8.5,3S8,2.7763672,8,2.5z M11,2.5v-2
	C11,0.2236328,11.2236328,0,11.5,0S12,0.2236328,12,0.5v2C12,2.7763672,11.7763672,3,11.5,3S11,2.7763672,11,2.5z"/>
</svg>
