<?xml version="1.0" encoding="utf-8"?>
<!-- Generator: Adobe Illustrator 17.1.0, SVG Export Plug-In . SVG Version: 6.00 Build 0)  -->
<!DOCTYPE svg PUBLIC "-//W3C//DTD SVG 1.1//EN" "http://www.w3.org/Graphics/SVG/1.1/DTD/svg11.dtd">
<svg version="1.1" id="Layer_1" xmlns="http://www.w3.org/2000/svg" xmlns:xlink="http://www.w3.org/1999/xlink" x="0px" y="0px"
	 width="15px" height="15px" viewBox="0 0 15 15" enable-background="new 0 0 15 15" xml:space="preserve">
<path fill="#A9A9A9" d="M14.6675653,12.1594238l-2.0664063-2.0595703c-0.4833984-0.4853516-1.4042969-0.4013672-1.9775391,0.1738281
	l-0.7216797,0.7207031c-0.2128906,0.2138672-0.4482422,0.2910156-0.5644531,0.1738281L3.8345578,5.6662598
	C3.7569211,5.588623,3.7862179,5.3234863,4.0078974,5.1018066l0.7265625-0.7260742
	C5.0552607,4.0544434,5.239831,3.6369629,5.239831,3.229248c0-0.3232422-0.1181641-0.6191406-0.3325195-0.8330078
	L2.8394406,0.3317871C2.6245968,0.1174316,2.3282101-0.0002441,2.0039914-0.0002441
	c-0.6142578,0-1.2128906,0.3974609-1.4887695,0.9887695c-1.3325195,2.8583984-0.0205078,7.0966797,3.190918,10.3076172
	c2.3203123,2.3193359,5.246582,3.7041016,7.8286133,3.7041016c0.8896484,0,1.7041016-0.1640625,2.421875-0.4873047
	c0.53125-0.2392578,0.921875-0.7265625,1.0214844-1.2724609C15.0533075,12.8254395,14.9410028,12.4318848,14.6675653,12.1594238z
	 M13.9947138,13.0617676c-0.0322266,0.1767578-0.1865234,0.4208984-0.4482422,0.5390625
	c-0.5878906,0.2646484-1.2646484,0.3994141-2.0117188,0.3994141c-2.3222656,0-4.9848633-1.2753906-7.121582-3.4111328
	C1.5396359,7.7160645,0.2813351,3.8562012,1.4214718,1.411377c0.125-0.2675781,0.3930664-0.4116211,0.5825195-0.4116211
	c0.0585938,0,0.1020508,0.0131836,0.1289063,0.0400391L4.2012568,3.104248c0.0317383,0.0317383,0.0385742,0.0854492,0.0385742,0.125
	c0,0.1098633-0.0556641,0.2827148-0.2124023,0.4389648L3.3003781,4.3947754
	C2.697839,4.9987793,2.6216671,5.8674316,3.1275265,6.373291l5.5039063,5.5029297
	c0.2138672,0.2128906,0.5087891,0.3300781,0.8320313,0.3300781c0.4082031,0,0.8251953-0.1835938,1.1455078-0.5048828
	l0.7216797-0.7207031c0.2119141-0.2119141,0.4404297-0.2949219,0.5644531-0.1728516l2.0664063,2.0595703
	C14.0113153,12.9172363,14.0035028,13.0109863,13.9947138,13.0617676z"/>
</svg>
