<?xml version="1.0" encoding="utf-8"?>
<!-- Generator: Adobe Illustrator 17.1.0, SVG Export Plug-In . SVG Version: 6.00 Build 0)  -->
<!DOCTYPE svg PUBLIC "-//W3C//DTD SVG 1.1//EN" "http://www.w3.org/Graphics/SVG/1.1/DTD/svg11.dtd">
<svg version="1.1" id="Layer_1" xmlns="http://www.w3.org/2000/svg" xmlns:xlink="http://www.w3.org/1999/xlink" x="0px" y="0px"
	 width="22px" height="14px" viewBox="0 0 22 14" enable-background="new 0 0 22 14" xml:space="preserve">
<g>
	<path fill="#2B2B2B" d="M20.9958038,13.9412889l-2.9380226,0.0457993c0,0-0.6313801,0.1392946-1.4622345-0.497138
		c-1.0986729-0.8413315-2.1352844-3.0291529-2.942749-2.7434692c-0.8187733,0.289834-0.7930536,2.2579966-0.7930536,2.2579966
		s0.0059643,0.42031-0.1806555,0.6443033c-0.2030497,0.243679-0.600152,0.2925081-0.600152,0.2925081h-1.3149643
		c0,0-2.9013028,0.1947756-5.456779-2.7730217C2.520473,7.931725,0.0595823,1.5092901,0.0595823,1.5092901
		s-0.1419263-0.4209244,0.0123137-0.6246914c0.1733775-0.2289091,0.6451636-0.2435932,0.6451636-0.2435932L3.860606,0.6181059
		c0,0,0.2961662,0.0550387,0.5081184,0.2287366C4.5435033,0.9902017,4.641346,1.2579991,4.641346,1.2579991
		S5.1494641,2.6913438,5.8222032,3.987895c1.3132629,2.5312285,1.9249554,3.0847955,2.3707995,2.8136234
		c0.6497259-0.3952541,0.4548912-3.5781271,0.4548912-3.5781271s0.0118599-1.1551757-0.3272305-1.6697792
		C8.0581999,1.1552531,7.5631781,1.0386746,7.34448,1.0061904c-0.1769443-0.0263603,0.1134133-0.484351,0.4897537-0.6899292
		c0.5656857-0.3091006,1.5644956-0.3265555,2.7448983-0.3131651c0.919631,0.0104579,1.1845007,0.0744882,1.544034,0.1712721
		c1.083643,0.2918181,0.7159719,1.4191673,0.7159719,4.1230583c0,0.8656111-0.1399841,2.0836959,0.4201927,2.4875102
		c0.2407732,0.1735148,0.8298492,0.0258322,2.3028517-2.7641158c0.6980047-1.3223941,1.2217703-2.8770609,1.2217703-2.8770609
		s0.1141109-0.2772201,0.2919044-0.3958686c0.1817379-0.1213222,0.4271622-0.0840728,0.4271622-0.0840728l3.3079338-0.0228133
		c0,0,0.9940929-0.1322222,1.1549149,0.36829c0.1688061,0.5253092-0.3713818,1.751868-1.7228413,3.7610755
		c-2.2191029,3.2991929-2.4660721,2.9905992-0.6236973,4.897923c1.7600155,1.8223028,2.1249027,2.7092495,2.1845474,2.8193378
		C22.5326366,13.8355131,20.9958038,13.9412889,20.9958038,13.9412889z"/>
</g>
</svg>
