<svg xmlns="http://www.w3.org/2000/svg" width="186" height="40" viewBox="0 0 186 40">
    <g fill="none" fill-rule="evenodd">
        <path fill="#FFF" d="M-32-29H992v11310H-32z"/>
        <path fill="#FFF" d="M-32-29H992v86H-32z"/>
        <g fill="#00204D">
            <path d="M54.593 15.604c3.819 0 6.33 2.003 7.501 5.312h5.735c-1.41-6.357-6.475-10.343-13.236-10.343-8.063 0-14.143 6.269-14.143 14.444 0 8.176 6.08 14.237 14.143 14.237 6.76 0 11.664-4.167 13.236-10.343h-5.735c-1.148 3.16-3.682 5.312-7.5 5.312-5.296 0-8.578-3.785-8.578-9.206 0-5.42 3.282-9.413 8.577-9.413zM78.256 13.69l-.26.013-.312-2.733h-4.8V39.36h5.359V21.386c0-3.789 2.92-5.849 6.764-5.849.832 0 1 .067 1 .067v-5.207s-.346-.098-1-.098c-1.64 0-4.679.69-6.75 3.39zM135.653 10.298c-4.771 0-7.682 2.034-8.961 3.392l-.261.013-.312-2.733h-4.798V39.36h5.357v-17.87c0-3.974 3.594-6.056 8.007-6.056 3.794 0 6.487 1.888 6.487 5.828V39.36h5.358V20.924c0-7.846-5.545-10.626-10.877-10.626zM153.411 10.97h5.358v28.389h-5.358zM101.768 10.573c-8.136 0-14.272 6.165-14.272 14.34 0 8.176 6.136 14.341 14.272 14.341 8.138 0 14.275-6.165 14.275-14.34 0-8.176-6.137-14.34-14.275-14.34zm0 23.547c-5.286 0-8.706-3.872-8.706-9.207 0-5.334 3.42-9.31 8.706-9.31 5.288 0 8.709 3.976 8.709 9.31 0 5.335-3.421 9.207-8.709 9.207zM176.013 22.11c-5.282-1.152-5.074-2.455-5.074-3.614 0-1.39 1.572-3.147 4.127-3.147 2.15 0 4.4 1.065 4.4 4.653h5.15c.185-5.8-3.651-9.371-9.55-9.371-5.23 0-9.485 3.621-9.485 8.073 0 5.613 4.486 7.36 9.33 8.421 5.142 1.125 5.574 2.72 5.574 3.844 0 2.151-2.188 3.981-5.228 3.981-2.187 0-5.518-1.372-5.518-5.494h-5.149c-.317 6.475 4.386 10.213 10.667 10.213 5.975 0 10.69-3.83 10.69-8.908 0-5.754-5.125-7.602-9.934-8.651zM17.798.143L.085 39.359h5.648l3.471-7.917h22.084l3.471 7.917h5.648L22.694.143h-4.896zm2.336 6.696h.235l.268.717 5.02 11.419H14.835l5.037-11.419.262-.717zM11.192 27.04l1.655-3.665h14.797l1.656 3.665H11.192z"/>
        </g>
    </g>
</svg>
