<?xml version="1.0" encoding="utf-8"?>
<!-- Generator: Adobe Illustrator 19.1.0, SVG Export Plug-In . SVG Version: 6.00 Build 0)  -->
<svg version="1.0" id="Layer_1" xmlns="http://www.w3.org/2000/svg" xmlns:xlink="http://www.w3.org/1999/xlink" x="0px" y="0px"
	 viewBox="0 0 22 22" style="enable-background:new 0 0 22 22;" xml:space="preserve">
<style type="text/css">
	.st0{fill-rule:evenodd;clip-rule:evenodd;fill:#FFFFFF;}
</style>
<g>
	<g>
		<path class="st0" d="M20,6c-0.6,0-6.4,0-6.4,0L16,2c0,0,0.9-1.5,0-2c-0.8-0.4-2,1-2,1l-3,5L8,1c0,0-1.2-1.6-2-1C5.2,0.6,6,2,6,2
			l2.5,4c0,0-5.9,0-6.5,0C1,6,0,7,0,8c0,0.6,0,11.4,0,12c0,0.9,1.1,2,2,2c0.6,0,17.4,0,18,0c0.9,0,2-1.1,2-2c0-0.6,0-11.4,0-12
			C22,7.1,20.9,6,20,6z M20,19l-1,1H3l-1-1V9l1-1h16l1,1V19z M9,10v8h1l4-4l-4-4H9z"/>
	</g>
</g>
</svg>
