<svg xmlns="http://www.w3.org/2000/svg" xmlns:xlink="http://www.w3.org/1999/xlink" viewBox="0 0 526 249.26"><defs><style>.cls-1{isolation:isolate;}.cls-2{fill:#bcbec0;}.cls-3{fill:url(#radial-gradient);}.cls-4{fill:#fff;}.cls-13,.cls-5{opacity:0.21;}.cls-5{fill:url(#linear-gradient);}.cls-10,.cls-11,.cls-6{mix-blend-mode:overlay;}.cls-6{fill:url(#linear-gradient-2);}.cls-7{opacity:0.8;fill:url(#linear-gradient-3);}.cls-12,.cls-7,.cls-8,.cls-9{mix-blend-mode:screen;}.cls-8{opacity:0.1;fill:url(#linear-gradient-4);}.cls-9{opacity:0.16;fill:url(#linear-gradient-5);}.cls-10,.cls-12{opacity:0.5;}.cls-10{fill:url(#linear-gradient-6);}.cls-11{opacity:0.4;fill:url(#linear-gradient-7);}.cls-12{fill:url(#linear-gradient-8);}.cls-14{fill:url(#Fade_to_Black);}.cls-15{fill:url(#Fade_to_Black-2);}.cls-16{fill:url(#linear-gradient-9);}.cls-17{fill:url(#linear-gradient-10);}</style><radialGradient id="radial-gradient" cx="308.58" cy="49.28" r="200.21" gradientUnits="userSpaceOnUse"><stop offset="0" stop-color="#ed1c24"/><stop offset="1" stop-color="#c1272d"/></radialGradient><linearGradient id="linear-gradient" x1="450" y1="224.21" x2="446.68" y2="208.6" gradientUnits="userSpaceOnUse"><stop offset="0.01" stop-color="#ed1c24"/><stop offset="0.03" stop-color="#ed1c24" stop-opacity="0.94"/><stop offset="0.14" stop-color="#ed1c24" stop-opacity="0.72"/><stop offset="0.24" stop-color="#ed1c24" stop-opacity="0.53"/><stop offset="0.35" stop-color="#ed1c24" stop-opacity="0.37"/><stop offset="0.47" stop-color="#ed1c24" stop-opacity="0.23"/><stop offset="0.58" stop-color="#ed1c24" stop-opacity="0.13"/><stop offset="0.71" stop-color="#ed1c24" stop-opacity="0.06"/><stop offset="0.84" stop-color="#ed1c24" stop-opacity="0.01"/><stop offset="1" stop-color="#ed1c24" stop-opacity="0"/></linearGradient><linearGradient id="linear-gradient-2" x1="405.34" y1="-209.05" x2="591.74" y2="-209.05" gradientTransform="translate(-97.6 295.79) rotate(-4.27)" gradientUnits="userSpaceOnUse"><stop offset="0" stop-color="#fff" stop-opacity="0"/><stop offset="0.1" stop-color="#fff" stop-opacity="0.02"/><stop offset="0.23" stop-color="#fff" stop-opacity="0.08"/><stop offset="0.36" stop-color="#fff" stop-opacity="0.17"/><stop offset="0.5" stop-color="#fff" stop-opacity="0.3"/><stop offset="0.65" stop-color="#fff" stop-opacity="0.47"/><stop offset="0.8" stop-color="#fff" stop-opacity="0.67"/><stop offset="0.95" stop-color="#fff" stop-opacity="0.91"/><stop offset="1" stop-color="#fff"/></linearGradient><linearGradient id="linear-gradient-3" x1="405.33" y1="-209.83" x2="591.73" y2="-209.83" gradientTransform="translate(-97.6 295.79) rotate(-4.27)" gradientUnits="userSpaceOnUse"><stop offset="0" stop-color="#fff" stop-opacity="0"/><stop offset="0.35" stop-color="#fff" stop-opacity="0.01"/><stop offset="0.48" stop-color="#fff" stop-opacity="0.03"/><stop offset="0.58" stop-color="#fff" stop-opacity="0.08"/><stop offset="0.66" stop-color="#fff" stop-opacity="0.15"/><stop offset="0.73" stop-color="#fff" stop-opacity="0.24"/><stop offset="0.8" stop-color="#fff" stop-opacity="0.35"/><stop offset="0.85" stop-color="#fff" stop-opacity="0.48"/><stop offset="0.9" stop-color="#fff" stop-opacity="0.63"/><stop offset="0.95" stop-color="#fff" stop-opacity="0.8"/><stop offset="1" stop-color="#fff" stop-opacity="0.98"/><stop offset="1" stop-color="#fff"/></linearGradient><linearGradient id="linear-gradient-4" x1="492.86" y1="-167.37" x2="510.25" y2="-249.19" gradientTransform="translate(-97.6 295.79) rotate(-4.27)" gradientUnits="userSpaceOnUse"><stop offset="0.06" stop-color="#fff"/><stop offset="0.33" stop-color="#fff" stop-opacity="0"/></linearGradient><linearGradient id="linear-gradient-5" x1="799.38" y1="-377.65" x2="835.39" y2="-292.13" gradientTransform="matrix(1.07, -0.13, 0.12, 0.99, -458.35, 487.36)" gradientUnits="userSpaceOnUse"><stop offset="0" stop-color="#fff" stop-opacity="0"/><stop offset="0.12" stop-color="#fff" stop-opacity="0.01"/><stop offset="0.23" stop-color="#fff" stop-opacity="0.06"/><stop offset="0.33" stop-color="#fff" stop-opacity="0.13"/><stop offset="0.43" stop-color="#fff" stop-opacity="0.23"/><stop offset="0.53" stop-color="#fff" stop-opacity="0.36"/><stop offset="0.63" stop-color="#fff" stop-opacity="0.52"/><stop offset="0.72" stop-color="#fff" stop-opacity="0.71"/><stop offset="0.82" stop-color="#fff" stop-opacity="0.92"/><stop offset="0.85" stop-color="#fff"/></linearGradient><linearGradient id="linear-gradient-6" x1="748.67" y1="-36.88" x2="781.39" y2="36.6" gradientTransform="matrix(1.06, -0.12, 0.14, 1.23, -433.29, 139.02)" gradientUnits="userSpaceOnUse"><stop offset="0.02" stop-color="#fff" stop-opacity="0.86"/><stop offset="0.28" stop-color="#fff" stop-opacity="0.11"/><stop offset="0.36" stop-color="#fff" stop-opacity="0.13"/><stop offset="0.42" stop-color="#fff" stop-opacity="0.16"/><stop offset="0.47" stop-color="#fff" stop-opacity="0.23"/><stop offset="0.52" stop-color="#fff" stop-opacity="0.31"/><stop offset="0.57" stop-color="#fff" stop-opacity="0.43"/><stop offset="0.57" stop-color="#fff" stop-opacity="0.43"/><stop offset="0.64" stop-color="#fff" stop-opacity="0.55"/><stop offset="0.76" stop-color="#fff" stop-opacity="0.74"/><stop offset="0.86" stop-color="#fff" stop-opacity="0.88"/><stop offset="0.95" stop-color="#fff" stop-opacity="0.97"/><stop offset="1" stop-color="#fff"/></linearGradient><linearGradient id="linear-gradient-7" x1="789.36" y1="-5.82" x2="795.37" y2="-26.76" gradientTransform="matrix(1.06, -0.12, 0.14, 1.23, -433.29, 139.02)" gradientUnits="userSpaceOnUse"><stop offset="0.39" stop-color="#fff"/><stop offset="0.4" stop-color="#fff" stop-opacity="0.92"/><stop offset="0.43" stop-color="#fff" stop-opacity="0.75"/><stop offset="0.47" stop-color="#fff" stop-opacity="0.6"/><stop offset="0.5" stop-color="#fff" stop-opacity="0.47"/><stop offset="0.54" stop-color="#fff" stop-opacity="0.36"/><stop offset="0.59" stop-color="#fff" stop-opacity="0.27"/><stop offset="0.64" stop-color="#fff" stop-opacity="0.2"/><stop offset="0.71" stop-color="#fff" stop-opacity="0.15"/><stop offset="0.79" stop-color="#fff" stop-opacity="0.12"/><stop offset="1" stop-color="#fff" stop-opacity="0.11"/></linearGradient><linearGradient id="linear-gradient-8" x1="748.19" y1="-37.36" x2="781.17" y2="36.72" gradientTransform="matrix(1.06, -0.12, 0.14, 1.23, -433.29, 139.02)" gradientUnits="userSpaceOnUse"><stop offset="0" stop-color="#fff" stop-opacity="0.86"/><stop offset="0.11" stop-color="#fff" stop-opacity="0.11"/></linearGradient><linearGradient id="Fade_to_Black" x1="176.31" y1="39.34" x2="186.62" y2="56.5" gradientUnits="userSpaceOnUse"><stop offset="0" stop-color="#231f20"/><stop offset="0.06" stop-color="#231f20" stop-opacity="0.86"/><stop offset="0.33" stop-color="#231f20" stop-opacity="0.38"/><stop offset="0.63" stop-color="#231f20" stop-opacity="0.09"/><stop offset="1" stop-color="#231f20" stop-opacity="0"/></linearGradient><linearGradient id="Fade_to_Black-2" x1="30.43" y1="39.43" x2="40.74" y2="56.58" xlink:href="#Fade_to_Black"/><linearGradient id="linear-gradient-9" x1="328.06" y1="39.43" x2="338.37" y2="56.58" xlink:href="#linear-gradient"/><linearGradient id="linear-gradient-10" x1="420.68" y1="39.43" x2="430.99" y2="56.58" xlink:href="#linear-gradient"/></defs><title>Artboard 1</title><g class="cls-1"><g id="Layer_1" data-name="Layer 1"><rect class="cls-2" y="30.77" width="526" height="194"/><path class="cls-3" d="M256.76,124.87A124.62,124.62,0,1,1,381.6,249.26C312.84,249.37,256.85,193.59,256.76,124.87Z"/><polygon class="cls-4" points="18.78 78.26 62.17 78.26 62.17 212.46 99.65 212.46 99.65 78.26 142.81 78.26 142.81 44.1 18.78 44.1 18.78 78.26"/><path class="cls-4" d="M287.4,139.73a47.7,47.7,0,0,0-7.5-10,36.86,36.86,0,0,0-6.87-5.51,34.91,34.91,0,0,0,12.41-13.55A43.23,43.23,0,0,0,290.56,91a53.08,53.08,0,0,0-3-17.69,42.65,42.65,0,0,0-9.19-15.13,43.19,43.19,0,0,0-15.59-10.34c-6.2-2.48-13.65-3.74-22.15-3.74h-76V212.46h79.09a52.42,52.42,0,0,0,21.41-4.12,45.43,45.43,0,0,0,15.55-11.15,48.18,48.18,0,0,0,9.5-16.22,58.75,58.75,0,0,0,3.22-19.53,41.75,41.75,0,0,0-1.51-10.71A48,48,0,0,0,287.4,139.73Zm-85.28,2.08h32.12c6.33,0,11.11,1.66,14.61,5.06s5.17,7.79,5.17,13.42-1.58,10-4.83,13.2-8.16,4.81-14.72,4.81H202.12Zm45.22-36.9c-3.31,2.76-8.12,4.16-14.28,4.16H202.12V78.26h30.46c6.92,0,12,1.38,15.05,4.11s4.5,6.58,4.5,11.88A13,13,0,0,1,247.34,104.9Z"/><path class="cls-4" d="M409.06,44.1V152.77a30,30,0,0,1-2.36,12.6,23.74,23.74,0,0,1-6.19,8.28,25,25,0,0,1-8.81,4.75,34.68,34.68,0,0,1-20.5,0,25,25,0,0,1-8.81-4.75,23.68,23.68,0,0,1-6.19-8.28,29.9,29.9,0,0,1-2.36-12.6V44.1H316.35V158.75c0,9.23,1.85,17.4,5.5,24.29a52.71,52.71,0,0,0,14.53,17.29A62.83,62.83,0,0,0,357.2,210.7a86,86,0,0,0,24.13,3.42,83.36,83.36,0,0,0,24.15-3.55A64.68,64.68,0,0,0,426.4,200,53,53,0,0,0,441,182.43c3.64-7,5.49-15.18,5.49-24.39V44.1Z"/><path class="cls-4" d="M468.43,204.73l-34.25-39.36c-14.61,2.44-20.19,15.35-34.36,17.37l39.45,45.49A100.44,100.44,0,0,0,455,217.56,114.7,114.7,0,0,0,468.43,204.73Z"/><path class="cls-5" d="M465.83,206l-20.75,6.25c-14.61,2.44-3.08-1.69-17.25.33l11.93,13.79a100.44,100.44,0,0,0,15.69-10.67C464.61,208.08,465.83,206,465.83,206Z"/><path class="cls-6" d="M478.39,68.87C475.6,86.08,426.9,96.88,363.66,92c-51.6-4-72-26.13-72.48-32.72-1.86-24.93,57-51.76,84.15-53C437.28,3.53,481.92,47.12,478.39,68.87Z"/><path class="cls-7" d="M478.19,66.29c-2.78,17.21-51.48,28-114.72,23.08-51.6-4-72.31-26.11-72.48-32.72-.65-25.38,57.66-48.18,84.85-49.38C437.78,4.53,481.72,44.54,478.19,66.29Z"/><path class="cls-8" d="M478.19,66.29c-2.78,17.21-51.48,28-114.72,23.08-51.6-4-70.14-22.51-70.63-29.11-1.86-24.93,52.85-49.14,80-51C432.93,5.16,481.72,44.54,478.19,66.29Z"/><path class="cls-9" d="M460.85,49.91c-2,14.08-45,25.06-101.44,23.95-46.06-.91-67.31-18.19-65.5-23.24,4.42-12.35,47.26-37.55,71.42-39.85C417.83,5.77,463.33,32.1,460.85,49.91Z"/><path class="cls-10" d="M299.18,59.22a65.68,65.68,0,0,1,2-11.07,62.8,62.8,0,0,1,4.24-10.57s26.09-25,68.4-27.81S445.62,23.47,447.75,25s10.86,21,10.86,21S428.43,23.4,374,28.3C340,31.37,316.87,46.37,299.18,59.22Z"/><path class="cls-11" d="M373.83,10.27c42.31-2.78,70.37,16,72.5,17.5S458.61,46,458.61,46,428.43,23.4,374,28.3C340,31.37,331.52,13,373.83,10.27Z"/><path class="cls-12" d="M299.18,59.22a65.68,65.68,0,0,1,2-11.07,62.8,62.8,0,0,1,4.24-10.57S330,11,372.33,8.27s73.37,18,75.5,19.5S458.61,46,458.61,46,428.43,23.4,374,28.3C340,31.37,316.87,46.37,299.18,59.22Z"/><g class="cls-13"><polygon class="cls-14" points="205.03 45.44 166.03 45.52 166.03 63.94 205.03 45.44"/><polygon class="cls-15" points="59.15 45.52 20.16 45.6 20.16 64.02 59.15 45.52"/><polygon class="cls-16" points="356.77 45.52 317.78 45.6 317.78 64.02 356.77 45.52"/><polygon class="cls-17" points="449.4 45.52 410.41 45.6 410.41 64.02 449.4 45.52"/></g></g></g></svg>