<svg id="Layer_1" data-name="Layer 1" xmlns="http://www.w3.org/2000/svg" viewBox="0 0 560.77 100.51"><defs><style>.cls-1{fill:#bbb;}.cls-2{fill:#47ba80;}.cls-3{fill:#ea6497;}</style></defs><title>Монтажная область 2</title><path class="cls-1" d="M65.92,33.28a7.74,7.74,0,0,0-1.78-.36,29,29,0,0,0-2.91-.12q-1.71,0-2.9.12a9.57,9.57,0,0,0-1.92.36,2.48,2.48,0,0,0-1.07.6,1.69,1.69,0,0,0-.43.84L51.74,50.62H34.81L38,34.71a1.21,1.21,0,0,0-.09-.84,1.47,1.47,0,0,0-.83-.6,7.59,7.59,0,0,0-1.76-.36,28.4,28.4,0,0,0-2.88-.12q-1.77,0-2.95.12a9.68,9.68,0,0,0-1.92.36,2.73,2.73,0,0,0-1.1.6,1.6,1.6,0,0,0-.46.84L17.49,77.29a1.22,1.22,0,0,0,.1.83,1.48,1.48,0,0,0,.84.6,7.65,7.65,0,0,0,1.77.36,28.42,28.42,0,0,0,2.9.12q1.72,0,2.92-.12a9.66,9.66,0,0,0,1.94-.36,2.73,2.73,0,0,0,1.1-.6,1.6,1.6,0,0,0,.45-.83l3.33-16.75H49.76L46.42,77.29a1,1,0,0,0,.07.83,1.59,1.59,0,0,0,.83.6,7.17,7.17,0,0,0,1.75.36,28,28,0,0,0,2.85.12q1.78,0,3-.12a9.75,9.75,0,0,0,1.93-.36,3,3,0,0,0,1.13-.6,1.54,1.54,0,0,0,.48-.83l8.47-42.58a1.13,1.13,0,0,0-.12-.84A1.61,1.61,0,0,0,65.92,33.28Z"/><path class="cls-1" d="M114.83,33.83a1.35,1.35,0,0,0-.75-.57,6.57,6.57,0,0,0-1.52-.33,20.13,20.13,0,0,0-2.41-.12,14.93,14.93,0,0,0-4.24.43,2,2,0,0,0-1.51,1.43l-.77,3.77a16.06,16.06,0,0,0-5.35-4.82,14.52,14.52,0,0,0-7-1.65,18.48,18.48,0,0,0-7.62,1.5,20.47,20.47,0,0,0-6,4,26,26,0,0,0-4.47,5.81,38.92,38.92,0,0,0-3.06,6.81,44.05,44.05,0,0,0-1.77,7.1,41.51,41.51,0,0,0-.57,6.57,28.29,28.29,0,0,0,.64,6.12,15,15,0,0,0,2.17,5.18,11,11,0,0,0,4.06,3.61A13.49,13.49,0,0,0,81,80a16.1,16.1,0,0,0,5.36-.91,22.15,22.15,0,0,0,4.74-2.3,19.37,19.37,0,0,0,3.72-3.09,13,13,0,0,0,2.29-3.23L95.8,77.34a1.44,1.44,0,0,0,.07.88,1.25,1.25,0,0,0,.75.57,6.37,6.37,0,0,0,1.53.31q.95.1,2.45.1a14.81,14.81,0,0,0,4.21-.43,1.94,1.94,0,0,0,1.5-1.43l8.61-42.67A1.22,1.22,0,0,0,114.83,33.83ZM99.05,53.9a24.52,24.52,0,0,1-2.13,6.19,24,24,0,0,1-3.37,5.07,16.41,16.41,0,0,1-4.11,3.44,8.58,8.58,0,0,1-4.3,1.27,4.14,4.14,0,0,1-3.91-2.19,6.9,6.9,0,0,1-.78-2.29,16.75,16.75,0,0,1-.21-2.72,33.88,33.88,0,0,1,1.26-8.85,29.45,29.45,0,0,1,1.61-4.37,18,18,0,0,1,2.25-3.7,10.4,10.4,0,0,1,2.94-2.55,7.21,7.21,0,0,1,3.65-1,8.62,8.62,0,0,1,4.74,1.3,12.64,12.64,0,0,1,3.73,3.91Z"/><path class="cls-1" d="M151.8,44.76a7.29,7.29,0,0,0,1.11-2.09,18.2,18.2,0,0,0,.72-2.64,13.19,13.19,0,0,0,.27-2.5,2.3,2.3,0,0,0-.22-1.06,4.06,4.06,0,0,0-.8-1,9.15,9.15,0,0,0-1.74-1.23,14.52,14.52,0,0,0-2.7-1.19,21.27,21.27,0,0,0-3.34-.8,23.57,23.57,0,0,0-3.73-.29A22.24,22.24,0,0,0,126,37.57a24.77,24.77,0,0,0-4.85,5.84A37.47,37.47,0,0,0,118,50.23a39.56,39.56,0,0,0-1.79,7,41.58,41.58,0,0,0-.55,6.41q0,8.09,4.05,12.23T131.89,80a24.59,24.59,0,0,0,4.43-.39,26.61,26.61,0,0,0,3.95-1,18.45,18.45,0,0,0,3.21-1.43,10.55,10.55,0,0,0,2-1.43,4.79,4.79,0,0,0,1.07-1.71,20.51,20.51,0,0,0,.75-2.32q.32-1.24.52-2.46a13.06,13.06,0,0,0,.2-2,2.68,2.68,0,0,0-.23-1.24.79.79,0,0,0-.75-.43,3.25,3.25,0,0,0-1.79.67q-1,.67-2.34,1.52a17.88,17.88,0,0,1-3.28,1.54,13.45,13.45,0,0,1-4.59.7q-3.61,0-5.3-2a8.92,8.92,0,0,1-1.69-5.87,29.33,29.33,0,0,1,.26-3.61,31.38,31.38,0,0,1,.88-4.35,34.35,34.35,0,0,1,1.57-4.49,16,16,0,0,1,2.4-4,12.19,12.19,0,0,1,3.41-2.84,8.88,8.88,0,0,1,4.43-1.1,10.22,10.22,0,0,1,3.82.61,11.31,11.31,0,0,1,2.46,1.33q1,.73,1.65,1.31a2.1,2.1,0,0,0,1.39.58A1.88,1.88,0,0,0,151.8,44.76Z"/><path class="cls-1" d="M224,47.52a30.06,30.06,0,0,0,.19-3.37,17.79,17.79,0,0,0-.62-4.81,10.17,10.17,0,0,0-2-3.87,9.28,9.28,0,0,0-3.66-2.58,14.89,14.89,0,0,0-5.63-.93,15.1,15.1,0,0,0-5.11.89,21.77,21.77,0,0,0-4.61,2.27,22.87,22.87,0,0,0-3.82,3.11,21.19,21.19,0,0,0-2.8,3.45,13.92,13.92,0,0,0-.89-3.83,8.93,8.93,0,0,0-2-3.09,9,9,0,0,0-3.35-2.06,14.06,14.06,0,0,0-4.81-.74,15.39,15.39,0,0,0-5.17.89,21.55,21.55,0,0,0-8.41,5.41,19.53,19.53,0,0,0-2.67,3.42l1.39-7a1.32,1.32,0,0,0-.07-.83,1.22,1.22,0,0,0-.69-.57,6,6,0,0,0-1.47-.33,20.38,20.38,0,0,0-2.46-.12,21.24,21.24,0,0,0-2.44.12,8.38,8.38,0,0,0-1.66.33,2.1,2.1,0,0,0-.95.57,1.8,1.8,0,0,0-.4.83l-8.61,42.63a1.22,1.22,0,0,0,.1.84,1.48,1.48,0,0,0,.84.6,7.65,7.65,0,0,0,1.77.36,28.61,28.61,0,0,0,2.9.12q1.72,0,2.92-.12a9.64,9.64,0,0,0,1.94-.36,2.72,2.72,0,0,0,1.1-.6,1.6,1.6,0,0,0,.45-.84L167.18,58a22.67,22.67,0,0,1,2.07-6,23.82,23.82,0,0,1,3.34-5,17.23,17.23,0,0,1,3.93-3.37,7.63,7.63,0,0,1,4-1.24,3.23,3.23,0,0,1,3,1.36,6.39,6.39,0,0,1,.86,3.47,22.3,22.3,0,0,1-.12,2.27,15.14,15.14,0,0,1-.4,2.27l-5,25.54a1.13,1.13,0,0,0,.12.84,1.6,1.6,0,0,0,.83.6,7.1,7.1,0,0,0,1.73.36,27.44,27.44,0,0,0,2.82.12q1.78,0,3-.12a10.27,10.27,0,0,0,2-.36,2.76,2.76,0,0,0,1.13-.6,1.61,1.61,0,0,0,.46-.84L194.59,58a22.68,22.68,0,0,1,2.08-6A23.82,23.82,0,0,1,200,47,17.29,17.29,0,0,1,204,43.61a7.67,7.67,0,0,1,4-1.24,3.21,3.21,0,0,1,3,1.39,7,7,0,0,1,.84,3.64,16.41,16.41,0,0,1-.14,2.18q-.14,1.08-.33,2.18l-5.14,25.54a1,1,0,0,0,.07.84,1.6,1.6,0,0,0,.84.6,7.32,7.32,0,0,0,1.77.36q1.15.12,2.88.12t2.94-.12a10.07,10.07,0,0,0,1.93-.36,2.71,2.71,0,0,0,1.12-.6,1.61,1.61,0,0,0,.45-.84L223.43,51Q223.81,49.22,224,47.52Z"/><path class="cls-1" d="M272.63,41.86a14.56,14.56,0,0,0-2.26-5.16,10.92,10.92,0,0,0-4.08-3.46A13.79,13.79,0,0,0,260.07,32a16.14,16.14,0,0,0-5.36.91,22.11,22.11,0,0,0-4.77,2.32,19.07,19.07,0,0,0-3.72,3.11A12.83,12.83,0,0,0,244,41.57l1.28-6.9a1.22,1.22,0,0,0-.1-.84,1.35,1.35,0,0,0-.74-.57,6.46,6.46,0,0,0-1.48-.33,19.89,19.89,0,0,0-2.41-.12,14.6,14.6,0,0,0-4.21.43,1.93,1.93,0,0,0-1.47,1.43l-12,59.58a1.3,1.3,0,0,0,.09.86,1.52,1.52,0,0,0,.83.65,7.11,7.11,0,0,0,1.73.41,22.86,22.86,0,0,0,2.85.14,26.11,26.11,0,0,0,3-.14,9.33,9.33,0,0,0,2-.41,2.77,2.77,0,0,0,1.11-.65,1.74,1.74,0,0,0,.46-.86L238.72,75a13.83,13.83,0,0,0,2,2,13.28,13.28,0,0,0,2.53,1.62,13.87,13.87,0,0,0,3.05,1.07,15.85,15.85,0,0,0,3.55.38,18.73,18.73,0,0,0,7.6-1.48,20.64,20.64,0,0,0,6-4,25,25,0,0,0,4.48-5.76A38.8,38.8,0,0,0,271,62a43.87,43.87,0,0,0,1.77-7.12,42.42,42.42,0,0,0,.58-6.69A27.68,27.68,0,0,0,272.63,41.86Zm-12,11.78a33.36,33.36,0,0,1-1,4.62,29,29,0,0,1-1.63,4.4,17.37,17.37,0,0,1-2.3,3.71,10.92,10.92,0,0,1-3,2.56,7.08,7.08,0,0,1-3.61,1,8.33,8.33,0,0,1-4.66-1.31,12.64,12.64,0,0,1-3.67-3.94l1.3-6.51a22.79,22.79,0,0,1,2.1-6.19,24.68,24.68,0,0,1,3.38-5.07,16.57,16.57,0,0,1,4.07-3.44A8.48,8.48,0,0,1,256,42.13a5,5,0,0,1,2.28.48A3.94,3.94,0,0,1,259.77,44a6.49,6.49,0,0,1,.86,2.27,15.43,15.43,0,0,1,.26,3A32.94,32.94,0,0,1,260.58,53.63Z"/><path class="cls-1" d="M418.24,39.6a11,11,0,0,0-3-3.88A15.27,15.27,0,0,0,410.1,33a24.18,24.18,0,0,0-7.5-1,25.15,25.15,0,0,0-8.94,1.48,24.24,24.24,0,0,0-6.91,3.94,24.84,24.84,0,0,0-5.09,5.71,35.57,35.57,0,0,0-3.44,6.81,37.73,37.73,0,0,0-1.94,7.21,42.64,42.64,0,0,0-.6,6.86,20.29,20.29,0,0,0,1.15,7.19,12,12,0,0,0,3.45,5A14.83,14.83,0,0,0,386,79.08a30,30,0,0,0,8,1,47.22,47.22,0,0,0,5.46-.31,47.71,47.71,0,0,0,4.84-.79A27.89,27.89,0,0,0,408,77.88a6.16,6.16,0,0,0,2.11-1.15,4.13,4.13,0,0,0,.93-1.39,11.94,11.94,0,0,0,.67-1.94,18.41,18.41,0,0,0,.41-2.08,14,14,0,0,0,.14-1.87,1.83,1.83,0,0,0-.24-1.05.93.93,0,0,0-.81-.33,6.2,6.2,0,0,0-1.82.45q-1.25.45-3.14,1a44.39,44.39,0,0,1-4.41,1,32.63,32.63,0,0,1-5.67.45q-4.49,0-6.51-1.94t-2-5.78q0-.9.1-2t.29-2.15h4.41a59.91,59.91,0,0,0,12-1.05,26.54,26.54,0,0,0,8.33-3,13.27,13.27,0,0,0,4.84-4.74,12.36,12.36,0,0,0,1.56-6.2A10.79,10.79,0,0,0,418.24,39.6Zm-11.57,7.95a5.93,5.93,0,0,1-2.3,2A14.65,14.65,0,0,1,400.2,51a34.33,34.33,0,0,1-6.42.5h-4a21.84,21.84,0,0,1,1.65-4.24,14.2,14.2,0,0,1,2.47-3.45,11.07,11.07,0,0,1,3.33-2.33,10.23,10.23,0,0,1,4.29-.86,6.63,6.63,0,0,1,4.38,1.27A4,4,0,0,1,407.39,45,4.74,4.74,0,0,1,406.67,47.55Z"/><path class="cls-1" d="M467.53,33.28a7.75,7.75,0,0,0-1.78-.36,29,29,0,0,0-2.91-.12q-1.71,0-2.9.12a9.57,9.57,0,0,0-1.92.36,2.49,2.49,0,0,0-1.07.6,1.69,1.69,0,0,0-.43.84l-3.17,15.91H436.41l3.17-15.91a1.21,1.21,0,0,0-.09-.84,1.47,1.47,0,0,0-.83-.6,7.6,7.6,0,0,0-1.76-.36A28.41,28.41,0,0,0,434,32.8q-1.77,0-2.95.12a9.68,9.68,0,0,0-1.92.36,2.74,2.74,0,0,0-1.1.6,1.6,1.6,0,0,0-.45.84l-8.49,42.58a1.22,1.22,0,0,0,.1.83,1.48,1.48,0,0,0,.84.6,7.66,7.66,0,0,0,1.77.36,28.42,28.42,0,0,0,2.9.12q1.72,0,2.92-.12a9.66,9.66,0,0,0,1.94-.36,2.72,2.72,0,0,0,1.1-.6,1.6,1.6,0,0,0,.45-.83l3.33-16.75h16.93L448,77.29a1,1,0,0,0,.07.83,1.59,1.59,0,0,0,.83.6,7.16,7.16,0,0,0,1.75.36,28,28,0,0,0,2.85.12q1.78,0,3-.12a9.74,9.74,0,0,0,1.93-.36,3,3,0,0,0,1.13-.6,1.54,1.54,0,0,0,.48-.83l8.47-42.58a1.13,1.13,0,0,0-.12-.84A1.61,1.61,0,0,0,467.53,33.28Z"/><path class="cls-1" d="M515.52,33.26a8.74,8.74,0,0,0-1.77-.33,28.38,28.38,0,0,0-2.9-.12q-1.72,0-2.91.12a11.05,11.05,0,0,0-1.93.33,2.72,2.72,0,0,0-1.12.57,1.3,1.3,0,0,0-.43.83l-3.71,18.43a28.06,28.06,0,0,1-2.26,6.56,25.09,25.09,0,0,1-3.4,5.24,16.49,16.49,0,0,1-4,3.48A8,8,0,0,1,487,69.63a4.43,4.43,0,0,1-1.81-.33,3,3,0,0,1-1.23-1,4.38,4.38,0,0,1-.7-1.6,9.24,9.24,0,0,1-.21-2.07,21,21,0,0,1,.12-2.19,18.32,18.32,0,0,1,.36-2.19l5.06-25.59a1.14,1.14,0,0,0-.12-.83,1.5,1.5,0,0,0-.83-.57,8.18,8.18,0,0,0-1.74-.33A28.09,28.09,0,0,0,483,32.8q-1.72,0-2.92.12a11.14,11.14,0,0,0-1.94.33,2.55,2.55,0,0,0-1.1.57,1.6,1.6,0,0,0-.45.83l-5.26,26.4q-.33,1.77-.55,3.47a26.41,26.41,0,0,0-.21,3.32,17.59,17.59,0,0,0,.65,4.88,9.81,9.81,0,0,0,2.06,3.85A9.7,9.7,0,0,0,477,79.1a15.3,15.3,0,0,0,5.68.93,16.08,16.08,0,0,0,5.21-.86,21.06,21.06,0,0,0,4.71-2.27,22.76,22.76,0,0,0,3.85-3.11,16.6,16.6,0,0,0,2.63-3.37l-1.29,6.92a1.14,1.14,0,0,0,0,.83,1.23,1.23,0,0,0,.69.57,6.08,6.08,0,0,0,1.46.33,19.88,19.88,0,0,0,2.42.12,21.24,21.24,0,0,0,2.46-.12,8.42,8.42,0,0,0,1.63-.33,2.09,2.09,0,0,0,.94-.57,1.81,1.81,0,0,0,.4-.83l8.62-42.67a1.21,1.21,0,0,0-.1-.83A1.39,1.39,0,0,0,515.52,33.26Z"/><path class="cls-1" d="M559.78,39.6a11,11,0,0,0-3-3.88A15.27,15.27,0,0,0,551.64,33a24.17,24.17,0,0,0-7.5-1,25.15,25.15,0,0,0-8.94,1.48,24.24,24.24,0,0,0-6.91,3.94,24.82,24.82,0,0,0-5.09,5.71,35.53,35.53,0,0,0-3.44,6.81,37.73,37.73,0,0,0-1.94,7.21,42.64,42.64,0,0,0-.6,6.86,20.29,20.29,0,0,0,1.15,7.19,12,12,0,0,0,3.45,5,14.83,14.83,0,0,0,5.72,2.91,30,30,0,0,0,8,1,47.23,47.23,0,0,0,5.46-.31,47.71,47.71,0,0,0,4.84-.79,27.89,27.89,0,0,0,3.69-1.05,6.17,6.17,0,0,0,2.11-1.15,4.14,4.14,0,0,0,.93-1.39,12,12,0,0,0,.67-1.94,18.53,18.53,0,0,0,.41-2.08,13.92,13.92,0,0,0,.14-1.87,1.83,1.83,0,0,0-.24-1.05.93.93,0,0,0-.81-.33,6.2,6.2,0,0,0-1.82.45q-1.25.45-3.14,1a44.38,44.38,0,0,1-4.41,1,32.62,32.62,0,0,1-5.68.45q-4.49,0-6.51-1.94t-2-5.78q0-.9.1-2t.29-2.15H534a59.91,59.91,0,0,0,12-1.05,26.54,26.54,0,0,0,8.33-3,13.26,13.26,0,0,0,4.84-4.74,12.36,12.36,0,0,0,1.56-6.2A10.79,10.79,0,0,0,559.78,39.6Zm-11.57,7.95a5.93,5.93,0,0,1-2.3,2A14.65,14.65,0,0,1,541.74,51a34.32,34.32,0,0,1-6.42.5h-4A21.84,21.84,0,0,1,533,47.21a14.2,14.2,0,0,1,2.47-3.45,11.07,11.07,0,0,1,3.33-2.33,10.23,10.23,0,0,1,4.29-.86,6.63,6.63,0,0,1,4.38,1.27A4,4,0,0,1,548.93,45,4.75,4.75,0,0,1,548.21,47.55Z"/><path class="cls-2" d="M310.58,62.14a6.81,6.81,0,0,0,.3,3.42A7,7,0,0,0,316.21,70a6.8,6.8,0,0,0,3.42-.3,8.53,8.53,0,0,0,2.9-2c6.36-7.35,29.16-34.51,35.29-42.06.91-1.8,1.29-2.1,1.49-3.21A6.81,6.81,0,0,0,359,19a7,7,0,0,0-5.33-4.48,6.81,6.81,0,0,0-3.42.3,8.69,8.69,0,0,0-2.9,2c-6.37,7.35-29.16,34.51-35.29,42.06A8.48,8.48,0,0,0,310.58,62.14Z"/><path class="cls-3" d="M16.59,7.94a4.73,4.73,0,0,0,1.25-3.28,4.17,4.17,0,0,0-.38-1.74,4,4,0,0,0-1.18-1.49,6.28,6.28,0,0,0-2-1A9.67,9.67,0,0,0,11.3,0,9.83,9.83,0,0,0,7.12.82,10,10,0,0,0,4.09,3,11.54,11.54,0,0,0,2,5.88,18.54,18.54,0,0,0,.79,9.13a20.92,20.92,0,0,0-.62,3A20.5,20.5,0,0,0,0,14.55a9,9,0,0,0,.35,2.53,5.13,5.13,0,0,0,1.19,2.11,5.88,5.88,0,0,0,2.25,1.43,10,10,0,0,0,3.51.53,14.2,14.2,0,0,0,3-.29,10.28,10.28,0,0,0,2.38-.8,8,8,0,0,0,1.83-1.22,6.77,6.77,0,0,0,1.29-1.53,6.67,6.67,0,0,0,.74-1.73,7,7,0,0,0,.24-1.83,5,5,0,0,0-.15-1.19,3.51,3.51,0,0,0-.52-1.15,3.63,3.63,0,0,0-1-1,5.13,5.13,0,0,0-1.63-.66,7.15,7.15,0,0,0,1.74-.73A6,6,0,0,0,16.59,7.94Zm-3.75,7.6a3.86,3.86,0,0,1-1,1.45,4.88,4.88,0,0,1-1.7,1,7.07,7.07,0,0,1-2.5.4,4,4,0,0,1-3.1-1,4.48,4.48,0,0,1-1-3.13,14.47,14.47,0,0,1,.08-1.47Q3.79,12,4,11.17H8.48a9.27,9.27,0,0,1,2.29.24,4.44,4.44,0,0,1,1.44.61,2,2,0,0,1,.73.89,2.84,2.84,0,0,1,.2,1A4.64,4.64,0,0,1,12.85,15.55Zm1.16-9a3.11,3.11,0,0,1-1,1.17,4.76,4.76,0,0,1-1.62.77,8.5,8.5,0,0,1-2.31.28H4.46A11.52,11.52,0,0,1,5.59,6,7.88,7.88,0,0,1,7.1,4.13,5.6,5.6,0,0,1,8.93,3,6,6,0,0,1,11,2.67a5.64,5.64,0,0,1,1.49.17,3,3,0,0,1,1,.5,1.94,1.94,0,0,1,.61.76,2.32,2.32,0,0,1,.19.94A3.56,3.56,0,0,1,14,6.53Z"/><path class="cls-3" d="M18.17,20.79a6.36,6.36,0,0,0,.8,0,6.51,6.51,0,0,0,.79,0,4.25,4.25,0,0,0,.57-.11.85.85,0,0,0,.35-.17.61.61,0,0,0,.16-.21l1.72-8.66H24a6.74,6.74,0,0,1,1.61.17,2.93,2.93,0,0,1,1.18.58,3.1,3.1,0,0,1,.81,1.08,7.64,7.64,0,0,1,.53,1.66l1.07,5.06a.54.54,0,0,0,.39.48,2.39,2.39,0,0,0,.55.12,8.55,8.55,0,0,0,1,0h.35a1,1,0,0,1-.08-.4q0-.11,0-.33c0-.15,0-.32.07-.52s.08-.4.14-.6a2.73,2.73,0,0,1,.22-.57,1.46,1.46,0,0,1,.31-.41.59.59,0,0,1,.3-.13l-.81-3.38a7.53,7.53,0,0,0-.56-1.62,6.09,6.09,0,0,0-.78-1.22,4.62,4.62,0,0,0-1-.88,4.35,4.35,0,0,0-1.15-.55v0a8.58,8.58,0,0,0,1.11-.47,6.76,6.76,0,0,0,1.21-.79,10.93,10.93,0,0,0,1.23-1.17A11.31,11.31,0,0,0,33,6.18L35.81,1.7a4.45,4.45,0,0,0,.31-.56,1,1,0,0,0,.1-.39.31.31,0,0,0-.05-.18.43.43,0,0,0-.22-.13,2.62,2.62,0,0,0-.48-.09q-.31,0-.82,0t-1,0A3,3,0,0,0,33,.47a1.2,1.2,0,0,0-.42.21,1.3,1.3,0,0,0-.26.3l-2.56,4.3A9.86,9.86,0,0,1,28.63,6.9,6.83,6.83,0,0,1,27.39,8,4.46,4.46,0,0,1,26,8.62a5.61,5.61,0,0,1-1.48.19H23.12l1.59-8a.22.22,0,0,0-.07-.2.73.73,0,0,0-.29-.16,2.39,2.39,0,0,0-.52-.1q-.33,0-.77,0t-.8,0a3.48,3.48,0,0,0-.58.1,1.11,1.11,0,0,0-.37.16.26.26,0,0,0-.13.2L17.28,20.3a.25.25,0,0,0,.07.21.59.59,0,0,0,.29.17A3.26,3.26,0,0,0,18.17,20.79Z"/><path class="cls-3" d="M32.94,19.84a1.51,1.51,0,0,1,0,.29.58.58,0,0,1-.07.3.61.61,0,0,1-.29.22,2,2,0,0,1-.56.14l-.55,0a.53.53,0,0,0,.09.16.84.84,0,0,0,.61.17,20,20,0,0,0,2.07-.1A5.86,5.86,0,0,0,36,20.64a4.42,4.42,0,0,0,1.38-.93,6.34,6.34,0,0,0,1.15-1.63,17,17,0,0,0,1-2.5q.48-1.48,1-3.56a22.78,22.78,0,0,1,1.21-3.88A8.58,8.58,0,0,1,43.4,5.46a6.36,6.36,0,0,1,2.48-1.54,10.68,10.68,0,0,1,3.47-.5h.5L46.54,20.17a.37.37,0,0,0,0,.28.45.45,0,0,0,.24.2,2.37,2.37,0,0,0,.51.13,5.32,5.32,0,0,0,.83.05,5.82,5.82,0,0,0,.87-.05,3.66,3.66,0,0,0,.57-.13.81.81,0,0,0,.35-.2.51.51,0,0,0,.14-.28L53.76,1.7a1.15,1.15,0,0,0-.1-.93,1,1,0,0,0-.74-.33q-.66,0-1.41-.05H50.1a16.6,16.6,0,0,0-5.44.78,10,10,0,0,0-3.72,2.22,10.86,10.86,0,0,0-2.37,3.45,24.28,24.28,0,0,0-1.44,4.46q-.51,2.22-.93,3.53a7.09,7.09,0,0,1-.91,2,2.21,2.21,0,0,1-1.12.87,5.45,5.45,0,0,1-1.57.19l-.12,0,.39,1.6Z"/><path class="cls-3" d="M31.87,18.4a2.73,2.73,0,0,0-.22.57q-.08.31-.14.6c0,.19-.06.37-.07.52s0,.26,0,.33a1,1,0,0,0,.08.4l.55,0a2,2,0,0,0,.56-.14.61.61,0,0,0,.29-.22.58.58,0,0,0,.07-.3,1.51,1.51,0,0,0,0-.29l-.07-.37-.39-1.6a.59.59,0,0,0-.3.13A1.46,1.46,0,0,0,31.87,18.4Z"/><path class="cls-3" d="M81.23,4.26a5.71,5.71,0,0,0-1.37-2.31A6.07,6.07,0,0,0,77.47.5,10.8,10.8,0,0,0,74,0,10.31,10.31,0,0,0,70,.72,10.46,10.46,0,0,0,67,2.64,11.47,11.47,0,0,0,64.7,5.45a14.85,14.85,0,0,0-1.43,3.42H59L60.56,1a.52.52,0,0,0,0-.28.44.44,0,0,0-.24-.21,1.65,1.65,0,0,0-.52-.12c-.22,0-.51,0-.86,0s-.62,0-.85,0a2.15,2.15,0,0,0-.57.12.77.77,0,0,0-.33.21A.54.54,0,0,0,57,1L53.19,20.15a.46.46,0,0,0,0,.3.4.4,0,0,0,.24.2,2.45,2.45,0,0,0,.51.13,5.62,5.62,0,0,0,.87.05,5.86,5.86,0,0,0,.87-.05,3.26,3.26,0,0,0,.57-.13.72.72,0,0,0,.32-.2.73.73,0,0,0,.15-.3l1.7-8.51h4.32q-.06.56-.11,1.12t0,1.12A10,10,0,0,0,63,17a5.63,5.63,0,0,0,1.36,2.29,6,6,0,0,0,2.37,1.42,10.75,10.75,0,0,0,3.45.49,10.55,10.55,0,0,0,3.61-.59A10.26,10.26,0,0,0,76.72,19a10.79,10.79,0,0,0,2.2-2.35,15,15,0,0,0,1.55-2.88,15.65,15.65,0,0,0,.91-3.18,18.69,18.69,0,0,0,.29-3.23A10.09,10.09,0,0,0,81.23,4.26ZM77.78,10a14.53,14.53,0,0,1-.59,2.41,12.47,12.47,0,0,1-1,2.22,7.88,7.88,0,0,1-1.42,1.83,6.46,6.46,0,0,1-1.88,1.24,5.83,5.83,0,0,1-2.34.46,5.74,5.74,0,0,1-2-.31A3.25,3.25,0,0,1,67.21,17a3.64,3.64,0,0,1-.75-1.44,7.18,7.18,0,0,1-.23-1.91,16.31,16.31,0,0,1,.19-2.45A15,15,0,0,1,67,8.71a12.42,12.42,0,0,1,1-2.24A7.88,7.88,0,0,1,69.4,4.64,6.42,6.42,0,0,1,71.26,3.4a5.66,5.66,0,0,1,2.32-.46,5.74,5.74,0,0,1,2.05.32,3.34,3.34,0,0,1,2.13,2.38A7.62,7.62,0,0,1,78,7.57,15.88,15.88,0,0,1,77.78,10Z"/><path class="cls-3" d="M87.2,13.62a6.78,6.78,0,0,0,2-.31,9.79,9.79,0,0,0,1.85-.79,8.55,8.55,0,0,0,1.54-1.09,8.26,8.26,0,0,0,1.13-1.2l-2,9.94a.34.34,0,0,0,0,.29.52.52,0,0,0,.25.2,1.78,1.78,0,0,0,.51.13,6.66,6.66,0,0,0,.84,0,7.16,7.16,0,0,0,.88,0,2.28,2.28,0,0,0,.56-.13,1,1,0,0,0,.33-.2.48.48,0,0,0,.14-.29L99.13,1a.53.53,0,0,0,0-.29.5.5,0,0,0-.23-.21,1.39,1.39,0,0,0-.51-.13q-.33,0-.86,0t-.86,0a1.81,1.81,0,0,0-.58.13,1.13,1.13,0,0,0-.33.21.47.47,0,0,0-.14.29l-.36,1.85a12,12,0,0,1-1,3.08,10.76,10.76,0,0,1-1.7,2.49,8.22,8.22,0,0,1-2.13,1.67,4.91,4.91,0,0,1-2.34.62,2.06,2.06,0,0,1-1.78-.76,3.8,3.8,0,0,1-.55-2.24c0-.09,0-.2,0-.34s0-.29,0-.46,0-.33.06-.49.05-.3.06-.39l1-5a.53.53,0,0,0,0-.29.5.5,0,0,0-.25-.21A1.52,1.52,0,0,0,86,.35q-.33,0-.83,0c-.35,0-.64,0-.87,0a1.86,1.86,0,0,0-.56.13,1,1,0,0,0-.33.21.65.65,0,0,0-.15.29L82.39,5.6a15.86,15.86,0,0,0-.27,1.59,13,13,0,0,0-.1,1.5,4.92,4.92,0,0,0,1.29,3.67A5.34,5.34,0,0,0,87.2,13.62Z"/><path class="cls-3" d="M100.58,19.67a4.11,4.11,0,0,0,1.6,1.09,6.65,6.65,0,0,0,2.45.4,7,7,0,0,0,2.41-.43,9.49,9.49,0,0,0,2.18-1.12,10.19,10.19,0,0,0,1.73-1.5A6.28,6.28,0,0,0,112,16.57l-.7,3.6a.46.46,0,0,0,0,.3.4.4,0,0,0,.21.2,1.68,1.68,0,0,0,.45.12,5,5,0,0,0,.71,0,5.64,5.64,0,0,0,.75,0,2.26,2.26,0,0,0,.5-.12.71.71,0,0,0,.3-.2.56.56,0,0,0,.13-.3L118.28,1a.51.51,0,0,0,0-.28A.44.44,0,0,0,118,.47a1.64,1.64,0,0,0-.52-.12c-.22,0-.51,0-.85,0s-.62,0-.86,0a2.18,2.18,0,0,0-.57.12.88.88,0,0,0-.34.21.51.51,0,0,0-.14.28L113,9.45a14,14,0,0,1-1.19,3.49A12.79,12.79,0,0,1,110,15.7a8.36,8.36,0,0,1-2.21,1.81,4.78,4.78,0,0,1-2.32.65,2.64,2.64,0,0,1-1.12-.22,2,2,0,0,1-.75-.6,2.39,2.39,0,0,1-.41-.92,5.41,5.41,0,0,1-.12-1.18,11.63,11.63,0,0,1,.06-1.23,10.06,10.06,0,0,1,.19-1.17L105.67,1a.53.53,0,0,0,0-.28.43.43,0,0,0-.23-.21,1.56,1.56,0,0,0-.5-.12c-.22,0-.49,0-.83,0s-.64,0-.88,0a2.29,2.29,0,0,0-.58.12.8.8,0,0,0-.34.21.76.76,0,0,0-.15.28L99.78,13q-.15.75-.25,1.49a11.27,11.27,0,0,0-.1,1.45A7.73,7.73,0,0,0,99.7,18,4.19,4.19,0,0,0,100.58,19.67Z"/><path class="cls-2" d="M368.43,38.94a6.87,6.87,0,1,0-12.72,5,32.65,32.65,0,1,1-25.92-21.78A6.93,6.93,0,1,0,332.14,8.6v0a46.29,46.29,0,1,0,36.29,30.39Z"/></svg>