<svg id="Слой_1" data-name="Слой 1" xmlns="http://www.w3.org/2000/svg" viewBox="0 0 50 50"><defs><style>.cls-1{fill:#fff;}</style></defs><title>Монтажная область 1</title><rect class="cls-1" x="24.83" y="42.79" width="11.15" height="2.69"/><rect class="cls-1" x="34.08" y="37.04" width="1.95" height="2.69"/><rect class="cls-1" x="14.71" y="37.09" width="16.65" height="2.69"/><path class="cls-1" d="M47.49,12.85h-6.9V9.91L31.09.08h-21V12.85H2.83a2.65,2.65,0,0,0-2.6,2.69V32.77a2.65,2.65,0,0,0,2.6,2.69h7.32V50H40.65V35.46h6.84a2.65,2.65,0,0,0,2.6-2.69V15.54A2.65,2.65,0,0,0,47.49,12.85ZM31.31,4.11l4.45,4.6H31.31ZM12.74,2.77h16V11.4H38v1.46H12.74ZM38.05,35.46V47.31H12.74V32.44H38.05ZM45.9,17.34v1.34h-11V16h11Z"/></svg>