<?xml version="1.0" encoding="UTF-8"?>
<svg width="21px" height="14px" viewBox="0 0 21 14" version="1.1" xmlns="http://www.w3.org/2000/svg" xmlns:xlink="http://www.w3.org/1999/xlink">
    <!-- Generator: Sketch 49.3 (51167) - http://www.bohemiancoding.com/sketch -->
    <title>Page 1</title>
    <desc>Created with Sketch.</desc>
    <defs>
        <polygon id="path-1" points="0.0001 0.0004 20.93185 0.0004 20.93185 13.7319 0.0001 13.7319"></polygon>
    </defs>
    <g id="Page-1" stroke="none" stroke-width="1" fill="none" fill-rule="evenodd">
        <g id="пгрк" transform="translate(-191.000000, -1733.000000)">
            <g id="Page-1" transform="translate(191.000000, 1733.000000)">
                <mask id="mask-2" fill="white">
                    <use xlink:href="#path-1"></use>
                </mask>
                <g id="Clip-2"></g>
                <path d="M19.2246,0.2929 L8.2016,11.3189 L1.7066,4.8239 C1.3166,4.4339 0.6836,4.4339 0.2926,4.8239 C-0.0974,5.2139 -0.0974,5.8479 0.2926,6.2379 L7.4926,13.4389 C7.6886,13.6349 7.9446,13.7319 8.2006,13.7319 L8.2016,13.7319 C8.4566,13.7319 8.7126,13.6349 8.9086,13.4389 L20.6386,1.7069 C21.0296,1.3159 21.0296,0.6829 20.6386,0.2929 C20.2476,-0.0981 19.6156,-0.0981 19.2246,0.2929" id="Fill-1" fill="#FF4646" mask="url(#mask-2)"></path>
            </g>
        </g>
    </g>
</svg>