<?xml version="1.0" encoding="UTF-8"?>
<svg width="15px" height="21px" viewBox="0 0 15 21" version="1.1" xmlns="http://www.w3.org/2000/svg" xmlns:xlink="http://www.w3.org/1999/xlink">
    <!-- Generator: Sketch 49.3 (51167) - http://www.bohemiancoding.com/sketch -->
    <title>Page 1</title>
    <desc>Created with Sketch.</desc>
    <defs>
        <polygon id="path-1" points="0 7.77777777e-05 14.9231906 7.77777777e-05 14.9231906 20.4828556 0 20.4828556"></polygon>
    </defs>
    <g id="Page-1" stroke="none" stroke-width="1" fill="none" fill-rule="evenodd">
        <g id="пгрк" transform="translate(-551.000000, -1222.000000)">
            <g id="Group-4" transform="translate(480.000000, 1080.000000)">
                <g id="Page-1" transform="translate(71.000000, 142.000000)">
                    <mask id="mask-2" fill="white">
                        <use xlink:href="#path-1"></use>
                    </mask>
                    <g id="Clip-2"></g>
                    <path d="M5.81357778,6.81621111 C7.35046667,5.38276667 8.67735556,4.14454444 8.6758,2.70487778 C8.67813333,2.66987778 8.68124444,2.61776667 8.68202222,2.55087778 C9.28557778,3.10776667 9.9358,3.90732222 10.3651333,4.99698889 C11.2129111,7.15454444 10.9539111,9.80521111 9.59435556,12.8766556 C9.46602222,13.1652111 9.52591111,13.5027667 9.74446667,13.7298778 C9.9638,13.9593222 10.2990222,14.0293222 10.5914667,13.9149889 C10.8878,13.7975444 11.9735778,13.3371 12.7264667,12.6005444 C13.1060222,13.2919889 13.4925778,14.3139889 13.3292444,15.4324333 C13.1752444,16.4871 12.5468,17.4616556 11.4594667,18.3397667 C11.2976889,17.7564333 10.9951333,17.1388778 10.4296889,16.7927667 C10.3060222,16.7173222 10.1652444,16.6784333 10.0236889,16.6784333 C9.95368889,16.6784333 9.88291111,16.6869889 9.81524444,16.7064333 C9.60757778,16.7639889 9.43257778,16.9055444 9.33302222,17.0968778 C9.21324444,17.3263222 9.02191111,17.6389889 8.82202222,17.9065444 C8.18657778,16.8689889 7.23613333,14.7534333 8.1018,12.3306556 C8.20757778,12.0351 8.12591111,11.7061 7.89413333,11.4945444 C7.66313333,11.2829889 7.32635556,11.2308778 7.04246667,11.3631 C6.99735556,11.3841 3.10457778,13.2499889 3.25624444,17.8046556 C2.42713333,16.9226556 1.55524444,15.5864333 1.55524444,13.8644333 C1.55524444,10.7906556 3.8178,8.67898889 5.81357778,6.81621111 M3.94924444,20.3783222 C4.0698,20.4475444 4.20435556,20.4825444 4.33891111,20.4825444 C4.34435556,20.4833222 4.35057778,20.4825444 4.35368889,20.4825444 C4.7838,20.4825444 5.13146667,20.1341 5.13146667,19.7047667 C5.13146667,19.5811 5.10346667,19.4644333 5.05213333,19.3609889 C4.36457778,16.6807667 5.27146667,14.9393222 6.20557778,13.9243222 C6.02591111,17.1466556 8.02324444,19.4893222 8.12513333,19.6067667 C8.37013333,19.8875444 8.77768889,19.9544333 9.09968889,19.7708778 C9.4318,19.5795444 9.74135556,19.2583222 9.99957778,18.9277667 C10.0548,19.1821 10.0866889,19.4589889 10.0882444,19.7063222 C10.0890222,19.9878778 10.2406889,20.2468778 10.4864667,20.3837667 C10.7330222,20.5206556 11.0324667,20.5144333 11.2743556,20.3666556 C13.3922444,19.0638778 14.6016889,17.4795444 14.8684667,15.6579889 C15.2674667,12.9303222 13.3564667,10.7525444 13.2755778,10.6607667 C13.0725778,10.4328778 12.7552444,10.3449889 12.4635778,10.4359889 C12.1726889,10.5269889 11.9611333,10.7797667 11.9230222,11.0823222 C11.9168,11.1336556 11.8926889,11.1912111 11.8538,11.2518778 C12.6066889,8.70387778 12.5950222,6.41565556 11.8118,4.42765556 C10.5798,1.29554444 7.88013333,0.110988889 7.76657778,0.0619888889 C7.4228,-0.0834555556 7.02535556,0.0332111111 6.81613333,0.341211111 C6.60768889,0.649988889 6.64657778,1.06376667 6.91024444,1.32743333 C7.05257778,1.46976667 7.15602222,2.0881 7.1218,2.65198889 C7.1218,3.46787778 5.97068889,4.54198889 4.75268889,5.6791 C2.6348,7.65543333 -0.000311111111,10.1147667 -0.000311111111,13.8644333 C-0.000311111111,18.0442111 3.78824444,20.2842111 3.94924444,20.3783222" id="Fill-1" fill="#FFFFFF" opacity="0.5" mask="url(#mask-2)"></path>
                </g>
            </g>
        </g>
    </g>
</svg>