<?xml version="1.0" encoding="UTF-8"?>
<svg width="795px" height="179px" viewBox="0 0 795 179" version="1.1" xmlns="http://www.w3.org/2000/svg" xmlns:xlink="http://www.w3.org/1999/xlink">
    <!-- Generator: Sketch 49.3 (51167) - http://www.bohemiancoding.com/sketch -->
    <title>ПГРК</title>
    <desc>Created with Sketch.</desc>
    <defs></defs>
    <g id="Page-1" stroke="none" stroke-width="1" fill="none" fill-rule="evenodd" opacity="0.187047101">
        <g id="пгрк" transform="translate(-323.000000, -1466.000000)" fill="#FF4646">
            <path d="M501.869426,1466 L501.869426,1645 L476.316651,1645 L476.316651,1491.57143 L348.552775,1491.57143 L348.552775,1645 L323,1645 L323,1466 L501.869426,1466 Z M696.173415,1491.57143 L568.409539,1491.57143 L568.409539,1645 L542.856764,1645 L542.856764,1466 L696.173415,1466 L696.173415,1491.57143 Z M877.701016,1542.71429 L877.701016,1517.14286 C877.701016,1503.07857 866.202267,1491.57143 852.148241,1491.57143 L749.93714,1491.57143 L749.93714,1568.28571 L852.148241,1568.28571 C866.202267,1568.28571 877.701016,1556.77857 877.701016,1542.71429 Z M903.253791,1517.14286 L903.253791,1542.71429 C903.253791,1569.82 880.767349,1593.85714 852.148241,1593.85714 L749.93714,1593.85714 L749.93714,1645 L724.384365,1645 L724.384365,1466 L852.148241,1466 C879.48971,1466 902.487208,1488.75857 903.253791,1517.14286 Z M1118,1466 L1028.56529,1555.5 L1118,1645 L1081.97059,1645 L1005.31226,1568.28571 L964.683349,1568.28571 L964.683349,1645 L939.130574,1645 L939.130574,1466 L964.683349,1466 L964.683349,1542.71429 L1005.31226,1542.71429 L1081.97059,1466 L1118,1466 Z" id="ПГРК"></path>
        </g>
    </g>
</svg>