<?xml version="1.0" encoding="UTF-8"?>
<svg width="20px" height="20px" viewBox="0 0 20 20" version="1.1" xmlns="http://www.w3.org/2000/svg" xmlns:xlink="http://www.w3.org/1999/xlink">
    <!-- Generator: Sketch 49.3 (51167) - http://www.bohemiancoding.com/sketch -->
    <title>Page 1</title>
    <desc>Created with Sketch.</desc>
    <defs>
        <polygon id="path-1" points="0 0 20 0 20 19.047619 0 19.047619"></polygon>
    </defs>
    <g id="Page-1" stroke="none" stroke-width="1" fill="none" fill-rule="evenodd">
        <g id="пгрк" transform="translate(-549.000000, -1297.000000)">
            <g id="Group-4" transform="translate(480.000000, 1080.000000)">
                <g id="Page-1" transform="translate(69.000000, 217.000000)">
                    <mask id="mask-2" fill="white">
                        <use xlink:href="#path-1"></use>
                    </mask>
                    <g id="Clip-2"></g>
                    <path d="M14.4931334,11.8298434 L15.2963029,17.6256774 L9.99953208,15.0747141 L4.70347642,17.6256774 L5.50736117,11.8298434 L1.43072143,7.61094255 L7.22312586,6.58003487 L9.99953208,1.42194163 L12.7766535,6.58003487 L18.5690579,7.61094255 L14.4931334,11.8298434 Z M18.8222387,6.21104102 L13.7107046,5.30170935 L11.2604296,0.750785178 C11.0108248,0.28865415 10.5259192,0 9.99953208,0 C9.47171451,0 8.98609374,0.28865415 8.73720416,0.751496149 L6.28907472,5.30170935 L1.17825584,6.21104102 C0.659020677,6.30346723 0.233476704,6.67246108 0.0696959148,7.17156259 C-0.0926544748,7.6706641 0.0332207172,8.21811163 0.399403094,8.59563713 L3.99471326,12.3175693 L3.28595011,17.4315824 C3.21443011,17.9505911 3.4354269,18.4674669 3.86240127,18.7760282 C4.11129086,18.9551928 4.40738364,19.047619 4.70347642,19.047619 C4.9158908,19.047619 5.12902039,19.000695 5.32713078,18.9047139 L9.99953208,16.6544913 L14.6733638,18.9047139 C14.8714742,19.000695 15.0838886,19.047619 15.2963029,19.047619 C15.5938261,19.047619 15.8884885,18.9551928 16.1373781,18.7760282 C16.5643525,18.4674669 16.7853492,17.9505911 16.7138292,17.4315824 L16.0043509,12.3175693 L19.6018067,8.59563713 C19.9658434,8.21811163 20.093149,7.6706641 19.9300834,7.17156259 C19.7663027,6.67246108 19.3400435,6.30346723 18.8222387,6.21104102 Z" id="Fill-1" fill-opacity="0.5" fill="#FFFFFF" mask="url(#mask-2)"></path>
                </g>
            </g>
        </g>
    </g>
</svg>