<?xml version="1.0" standalone="no"?>
<!DOCTYPE svg PUBLIC "-//W3C//DTD SVG 20010904//EN"
 "http://www.w3.org/TR/2001/REC-SVG-20010904/DTD/svg10.dtd">
<svg version="1.0" xmlns="http://www.w3.org/2000/svg"
 width="314.000000pt" height="314.000000pt" viewBox="0 0 314.000000 314.000000"
 preserveAspectRatio="xMidYMid meet">
<metadata>
Created by potrace 1.11, written by Peter Selinger 2001-2013
</metadata>
<g transform="translate(0.000000,314.000000) scale(0.100000,-0.100000)"
fill="#000000" stroke="none">
<path d="M1405 3133 c-16 -2 -79 -13 -140 -25 -655 -126 -1172 -679 -1252
-1338 -10 -81 -9 -348 1 -415 67 -449 310 -836 684 -1089 172 -116 367 -196
588 -241 124 -25 416 -26 554 -2 599 106 1091 556 1245 1139 45 170 55 265 50
458 -2 85 -6 166 -10 180 -6 26 -23 107 -31 150 -3 14 -19 66 -35 115 -189
560 -655 955 -1246 1056 -64 11 -344 19 -408 12z"/>
</g>
</svg>
