<?xml version="1.0" encoding="UTF-8"?>
<svg width="127px" height="754px" viewBox="0 0 127 754" version="1.1" xmlns="http://www.w3.org/2000/svg" xmlns:xlink="http://www.w3.org/1999/xlink">
    <!-- Generator: Sketch 49.3 (51167) - http://www.bohemiancoding.com/sketch -->
    <title>Group</title>
    <desc>Created with Sketch.</desc>
    <defs></defs>
    <g id="Page-1" stroke="none" stroke-width="1" fill="none" fill-rule="evenodd" opacity="0.131793478">
        <g id="Desktop" transform="translate(-75.000000, 0.000000)" fill="#FFFFFF">
            <g id="Group" transform="translate(138.500000, 377.000000) rotate(-90.000000) translate(-138.500000, -377.000000) translate(-240.000000, 314.000000)">
                <path d="M25.910705,126 L0,126 L0,2.13162821e-14 L55.0602482,2.13162821e-14 C68.5554071,2.13162821e-14 79.3515342,3.6 87.0887586,10.62 C95.0059185,17.64 98.9644984,26.64 98.9644984,37.98 C98.9644984,49.32 95.0059185,58.5 87.0887586,65.52 C79.3515342,72.54 68.5554071,76.14 55.0602482,76.14 L25.910705,76.14 L25.910705,126 Z M25.910705,22.68 L25.910705,54 L53.2608937,54 C65.6764398,54 73.0537934,48.42 73.0537934,38.34 C73.0537934,28.26 65.6764398,22.68 53.2608937,22.68 L25.910705,22.68 Z M145.874826,126 L119.964121,126 L119.964121,2.13162821e-14 L225.406296,2.13162821e-14 L225.406296,126 L199.675526,126 L199.675526,23.22 L145.874826,23.22 L145.874826,126 Z M280.593654,126 L254.682949,126 L254.682949,2.13162821e-14 L280.593654,2.13162821e-14 L280.593654,49.68 L327.017001,2.13162821e-14 L358.68564,2.13162821e-14 L305.244811,57.78 L367.862348,126 L334.754225,126 L280.593654,67.86 L280.593654,126 Z M757,126 L731.629101,126 L731.629101,27.72 L704.998654,41.22 L704.998654,15.84 L734.508069,2.13162821e-14 L757,2.13162821e-14 L757,126 Z" id="РПК-1"></path>
                <rect id="Rectangle-2" transform="translate(517.000000, 63.500000) rotate(90.000000) translate(-517.000000, -63.500000) " x="503" y="-18" width="28" height="163"></rect>
            </g>
        </g>
    </g>
</svg>