<?xml version="1.0" standalone="no"?>
<!DOCTYPE svg PUBLIC "-//W3C//DTD SVG 20010904//EN"
 "http://www.w3.org/TR/2001/REC-SVG-20010904/DTD/svg10.dtd">
<svg version="1.0" xmlns="http://www.w3.org/2000/svg"
 width="96.000000pt" height="96.000000pt" viewBox="0 0 96.000000 96.000000"
 preserveAspectRatio="xMidYMid meet">
<metadata>
Created by potrace 1.11, written by Peter Selinger 2001-2013
</metadata>
<g transform="translate(0.000000,96.000000) scale(0.100000,-0.100000)"
fill="#000000" stroke="none">
<path d="M422 809 c-53 -21 -142 -95 -142 -117 0 -20 17 -13 42 16 57 67 150
103 246 96 252 -20 327 -291 104 -374 -45 -17 -83 -21 -208 -23 -100 -2 -154
1 -155 8 -1 5 -2 34 -3 63 l-2 54 51 23 c51 22 95 65 95 91 0 22 -15 16 -30
-11 -47 -87 -189 -90 -250 -5 -12 17 -26 28 -31 25 -24 -15 48 -90 102 -107
l39 -11 0 -64 c0 -34 -3 -63 -7 -64 -73 -6 -93 -19 -93 -59 0 -35 18 -50 64
-52 l36 -1 0 -69 0 -68 -60 0 c-33 0 -60 -4 -60 -10 0 -6 52 -10 135 -10 83 0
135 4 135 10 0 9 -47 14 -96 11 -12 -1 -23 4 -26 11 -4 11 -3 68 1 112 1 11
36 13 184 12 162 -1 186 -3 216 -21 42 -25 71 -63 80 -105 3 -19 13 -36 20
-38 11 -4 12 4 7 34 -10 54 -40 99 -84 126 -34 21 -51 23 -232 28 l-195 5 0
28 -1 27 126 1 c198 1 257 13 325 64 99 76 97 229 -5 313 -81 67 -229 90 -328
51z m-142 -459 c0 -27 -3 -30 -34 -30 -35 0 -50 17 -40 45 4 9 19 15 40 15 31
0 34 -3 34 -30z"/>
</g>
</svg>
