<?xml version="1.0" encoding="utf-8"?>
<!-- Generator: Adobe Illustrator 19.0.0, SVG Export Plug-In . SVG Version: 6.00 Build 0)  -->
<svg version="1.1" id="Layer_1" xmlns="http://www.w3.org/2000/svg" xmlns:xlink="http://www.w3.org/1999/xlink" x="0px" y="0px"
	 viewBox="0 0 182 174" style="enable-background:new 0 0 182 174;" xml:space="preserve">
<style type="text/css">
	.st0{fill:url(#SVGID_1_);}
</style>
<g>
	<linearGradient id="SVGID_1_" gradientUnits="userSpaceOnUse" x1="105.2882" y1="138.0837" x2="70.1249" y2="41.4732">
		<stop  offset="0" style="stop-color:#F33B3B"/>
		<stop  offset="1" style="stop-color:#FFC306"/>
	</linearGradient>
	<path class="st0" d="M84.8,93.3c9.9,3.5,14.2,7.1,14.2,12.8c0,5.7-5,9.9-13.5,9.9c-7.8,0-14.9-2.8-19.8-5.7l-3.5,12
		c4.3,2.8,12.8,5.7,20.5,5.7v12v2.1H94v-13.5c13.5-2.1,21.2-12,21.2-22.7c0-11.3-6.4-17.7-20.5-23.4c-11.3-4.2-15.6-7.8-15.6-12.8
		c0-5,2.8-9.2,12-9.2c8.5,0,14.2,2.8,17,4.2l3.5-12c-4.2-2.1-9.9-4.2-17.7-4.2v-12H83.4v12c-12.8,2.1-20.5,11.3-20.5,22
		C62.8,82,71.3,88.4,84.8,93.3z"/>
</g>
</svg>
