<?xml version="1.0" encoding="utf-8"?>
<!-- Generator: Adobe Illustrator 19.0.0, SVG Export Plug-In . SVG Version: 6.00 Build 0)  -->
<svg version="1.1" id="Layer_1" xmlns="http://www.w3.org/2000/svg" xmlns:xlink="http://www.w3.org/1999/xlink" x="0px" y="0px"
	 viewBox="0 0 182 174" style="enable-background:new 0 0 182 174;" xml:space="preserve">
<style type="text/css">
	.st0{fill:url(#SVGID_1_);}
	.st1{fill:url(#SVGID_2_);}
	.st2{fill:url(#SVGID_3_);}
	.st3{fill:url(#SVGID_4_);}
	.st4{fill:url(#SVGID_5_);}
	.st5{fill:url(#SVGID_6_);}
</style>
<g>
	<linearGradient id="SVGID_1_" gradientUnits="userSpaceOnUse" x1="105.2882" y1="138.0837" x2="70.1249" y2="41.4732">
		<stop  offset="0" style="stop-color:#F33B3B"/>
		<stop  offset="1" style="stop-color:#FFC306"/>
	</linearGradient>
	<path class="st0" d="M84.8,93.3c9.9,3.5,14.2,7.1,14.2,12.8c0,5.7-5,9.9-13.5,9.9c-7.8,0-14.9-2.8-19.8-5.7l-3.5,12
		c4.3,2.8,12.8,5.7,20.5,5.7v12v2.1H94v-13.5c13.5-2.1,21.2-12,21.2-22.7c0-11.3-6.4-17.7-20.5-23.4c-11.3-4.2-15.6-7.8-15.6-12.8
		c0-5,2.8-9.2,12-9.2c8.5,0,14.2,2.8,17,4.2l3.5-12c-4.2-2.1-9.9-4.2-17.7-4.2v-12H83.4v12c-12.8,2.1-20.5,11.3-20.5,22
		C62.8,82,71.3,88.4,84.8,93.3z"/>
	<linearGradient id="SVGID_2_" gradientUnits="userSpaceOnUse" x1="127.2329" y1="164.7452" x2="82.6152" y2="42.1589">
		<stop  offset="0" style="stop-color:#F33B3B"/>
		<stop  offset="1" style="stop-color:#FFC306"/>
	</linearGradient>
	<path class="st1" d="M180.4,31.7l-49.6-7.1l7.1,49.6l14.8-14.8c4.3,9.4,6.4,19.1,6.4,29c0,39.1-31.8,70.8-70.8,70.8
		s-70.8-31.8-70.8-70.8c0-4.3,0.4-8.6,1.1-12.8L4.7,73c-0.9,5-1.4,10.2-1.4,15.3c0,22.8,8.8,44.2,24.8,60.2
		c16,16,37.4,24.8,60.2,24.8c22.8,0,44.2-8.8,60.2-24.8c16-16,24.8-37.4,24.8-60.2c0-13.7-3.4-26.9-10-39.6L180.4,31.7z"/>
	<linearGradient id="SVGID_3_" gradientUnits="userSpaceOnUse" x1="61.0334" y1="23.4871" x2="55.983" y2="9.6112">
		<stop  offset="0" style="stop-color:#F33B3B"/>
		<stop  offset="1" style="stop-color:#FFC306"/>
	</linearGradient>
	<path class="st2" d="M67.4,20.6L63.3,7.1c-4.9,1.5-9.7,3.5-14.3,5.8l6.5,12.6C59.3,23.5,63.3,21.9,67.4,20.6z"/>
	<linearGradient id="SVGID_4_" gradientUnits="userSpaceOnUse" x1="86.8613" y1="18.0613" x2="81.3255" y2="2.8519">
		<stop  offset="0" style="stop-color:#F33B3B"/>
		<stop  offset="1" style="stop-color:#FFC306"/>
	</linearGradient>
	<path class="st3" d="M88.3,17.5C88.3,17.5,88.3,17.5,88.3,17.5l0-14.2c0,0,0,0,0,0c-3.3,0-6.7,0.2-10,0.6L80,18
		C82.7,17.7,85.6,17.5,88.3,17.5z"/>
	<linearGradient id="SVGID_5_" gradientUnits="userSpaceOnUse" x1="21.3748" y1="63.3979" x2="14.5431" y2="44.6279">
		<stop  offset="0" style="stop-color:#F33B3B"/>
		<stop  offset="1" style="stop-color:#FFC306"/>
	</linearGradient>
	<path class="st4" d="M27.7,51.6l-12.1-7.3c-2.7,4.4-4.9,9.1-6.8,13.9l13.3,5C23.6,59.1,25.5,55.2,27.7,51.6z"/>
	<linearGradient id="SVGID_6_" gradientUnits="userSpaceOnUse" x1="37.7233" y1="40.3662" x2="31.384" y2="22.9492">
		<stop  offset="0" style="stop-color:#F33B3B"/>
		<stop  offset="1" style="stop-color:#FFC306"/>
	</linearGradient>
	<path class="st5" d="M44.7,32.4L36,21.3c-4.1,3.2-7.8,6.7-11.3,10.6l10.6,9.4C38.2,38,41.3,35.1,44.7,32.4z"/>
</g>
</svg>
